<?xml version="1.0" encoding="utf-8"?>
<!-- Generator: Adobe Illustrator 17.1.0, SVG Export Plug-In . SVG Version: 6.00 Build 0)  -->
<!DOCTYPE svg PUBLIC "-//W3C//DTD SVG 1.1//EN" "http://www.w3.org/Graphics/SVG/1.1/DTD/svg11.dtd">
<svg version="1.1" id="Capa_1" xmlns="http://www.w3.org/2000/svg" xmlns:xlink="http://www.w3.org/1999/xlink" x="0px" y="0px"
	 viewBox="0 0 16 14" enable-background="new 0 0 16 14" xml:space="preserve">
<g>
	<g>
		<path fill="#990000" d="M8,10.1c0.3,0,0.5,0.1,0.6,0.2c0.2,0.2,0.2,0.4,0.2,0.6c0,0.2-0.1,0.4-0.2,0.6S8.3,11.7,8,11.7
			c-0.3,0-0.5-0.1-0.6-0.2s-0.2-0.3-0.2-0.6c0-0.2,0.1-0.4,0.2-0.6C7.5,10.2,7.7,10.1,8,10.1z M8.6,8.2H7.4L7.2,3.9h1.7L8.6,8.2z"/>
	</g>
	<path fill="none" stroke="#990000" stroke-miterlimit="10" d="M8,0.5C7.7,0.5,7.3,1,7.3,1L0.5,12.7c0,0,0,0.3,0.1,0.5
		C0.7,13.4,1,13.5,1,13.5h14.1c0,0,0.2-0.1,0.3-0.3c0.1-0.2,0.1-0.5,0.1-0.5L8.7,1C8.7,1,8.3,0.5,8,0.5z"/>
</g>
</svg>
