<?xml version="1.0" encoding="utf-8"?>
<!-- Generator: Adobe Illustrator 17.1.0, SVG Export Plug-In . SVG Version: 6.00 Build 0)  -->
<!DOCTYPE svg PUBLIC "-//W3C//DTD SVG 1.1//EN" "http://www.w3.org/Graphics/SVG/1.1/DTD/svg11.dtd">
<svg version="1.1" id="Capa_1" xmlns="http://www.w3.org/2000/svg" xmlns:xlink="http://www.w3.org/1999/xlink" x="0px" y="0px"
	 viewBox="0 0 24 24" enable-background="new 0 0 24 24" xml:space="preserve">
<path fill="#FFFFFF" d="M16,12c0,2.2-1.8,4-4,4s-4-1.8-4-4s1.8-4,4-4S16,9.8,16,12z M24,5v14c0,2.8-2.2,5-5,5H5c-2.8,0-5-2.2-5-5V5
	c0-2.8,2.2-5,5-5h14C21.8,0,24,2.2,24,5z M18,12c0-3.3-2.7-6-6-6s-6,2.7-6,6s2.7,6,6,6S18,15.3,18,12z M20.8,4.8
	c0-0.9-0.7-1.6-1.6-1.6s-1.6,0.7-1.6,1.6s0.7,1.6,1.6,1.6S20.8,5.7,20.8,4.8z"/>
</svg>
