<?xml version="1.0" encoding="utf-8"?>
<!-- Generator: Adobe Illustrator 17.1.0, SVG Export Plug-In . SVG Version: 6.00 Build 0)  -->
<!DOCTYPE svg PUBLIC "-//W3C//DTD SVG 1.1//EN" "http://www.w3.org/Graphics/SVG/1.1/DTD/svg11.dtd">
<svg version="1.1" id="Capa_1" xmlns="http://www.w3.org/2000/svg" xmlns:xlink="http://www.w3.org/1999/xlink" x="0px" y="0px"
	 viewBox="0 0 24 24" enable-background="new 0 0 24 24" xml:space="preserve">
<path d="M9.1,6.9H6.4V3.6h2.7V6.9z M7.2,6.1h1.1V4.4H7.2V6.1z"/>
<path d="M12.8,6.9h-2.7V3.6h2.7V6.9z M10.9,6.1H12V4.4h-1.1V6.1z"/>
<path d="M16.4,6.9h-2.7V3.6h2.7V6.9z M14.5,6.1h1.1V4.4h-1.1V6.1z"/>
<path d="M20.1,6.9h-2.7V3.6h2.7V6.9z M18.2,6.1h1.1V4.4h-1.1V6.1z"/>
<path d="M9.1,11.3H6.4V8h2.7V11.3z"/>
<path d="M9.1,15.8H6.4v-3.3h2.7V15.8z M7.2,15h1.1v-1.7H7.2V15z"/>
<path d="M5.5,11.3H2.8V8h2.7V11.3z M3.6,10.5h1.1V8.8H3.6V10.5z"/>
<path d="M5.5,15.8H2.8v-3.3h2.7V15.8z M3.6,15h1.1v-1.7H3.6V15z"/>
<path d="M5.5,20.2H2.8v-3.3h2.7V20.2z M3.6,19.4h1.1v-1.7H3.6V19.4z"/>
<g>
	<rect x="7.2" y="17.7" fill="none" width="1.1" height="1.7"/>
	<path fill="none" d="M14.5,8.8v0.8c0.4-0.1,0.7-0.2,1.1-0.3V8.8H14.5z"/>
	<path fill="none" d="M18.2,8.8v0.3c0.4,0,0.7,0.1,1.1,0.2V8.8H18.2z"/>
	<rect x="10.9" y="8.8" fill="none" width="1.1" height="1.7"/>
	<path d="M12.8,8h-2.7v3.3h1.6c0.3-0.3,0.7-0.6,1.1-0.9V8z M12,10.5h-1.1V8.8H12V10.5z"/>
	<path d="M14.5,8.8h1.1v0.5c0.3-0.1,0.5-0.1,0.8-0.1V8h-2.7v1.9c0.3-0.1,0.5-0.2,0.8-0.3V8.8z"/>
	<path d="M18.2,9.1V8.8h1.1v0.5c0.3,0.1,0.5,0.1,0.8,0.2V8h-2.7v1.1c0,0,0.1,0,0.1,0C17.7,9.1,18,9.1,18.2,9.1z"/>
	<path d="M10.1,12.5v0.8c0.2-0.3,0.3-0.6,0.5-0.8H10.1z"/>
	<path d="M9,16.9H6.4v3.3h2.7v-1.5C9,18.3,9,17.9,9,17.5C9,17.3,9,17.1,9,16.9z M8.3,19.4H7.2v-1.7h1.1V19.4z"/>
</g>
<circle cx="17.5" cy="17.5" r="6.5"/>
<path fill="#FFFFFF" d="M13,17.5c0,2.5,2,4.5,4.5,4.5s4.5-2,4.5-4.5S20,13,17.5,13S13,15,13,17.5z"/>
<polygon points="18,17 18,14 17,14 17,18 20,18 20,17 "/>
<path d="M9.8,21H2V3h19v6.8c0.7,0.3,1.4,0.8,2,1.3V0H0v23h11C10.5,22.4,10.1,21.7,9.8,21z"/>
</svg>
