<?xml version="1.0" encoding="utf-8"?>
<!-- Generator: Adobe Illustrator 17.1.0, SVG Export Plug-In . SVG Version: 6.00 Build 0)  -->
<!DOCTYPE svg PUBLIC "-//W3C//DTD SVG 1.1//EN" "http://www.w3.org/Graphics/SVG/1.1/DTD/svg11.dtd">
<svg version="1.1" id="Capa_1" xmlns="http://www.w3.org/2000/svg" xmlns:xlink="http://www.w3.org/1999/xlink" x="0px" y="0px"
	 viewBox="133.5 474.7 458.6 63.6" enable-background="new 133.5 474.7 458.6 63.6" xml:space="preserve">
<title>Group 4</title>
<desc>Created with Sketch.</desc>
<path fill="#4B4B4B" d="M197.2,530.5c0,4.4-3.5,7.9-7.9,7.9h-48c-4.4,0-7.9-3.5-7.9-7.9v-47.8c0-4.4,3.5-7.9,7.9-7.9h48
	c4.4,0,7.9,3.5,7.9,7.9V530.5z"/>
<path id="BASIN" fill="#4B4B4B" d="M440,525c-2.5,0-3.9-1.4-3.9-3.9v-27.4c0-2.5,1.4-3.9,3.9-3.9h14.7c6.8,0,10.3,4.3,10.3,9
	c0,4.5-2.8,7.4-6.1,8.1c3.7,0.7,6.8,4.3,6.8,8.6c0,5.3-3.6,9.5-10.3,9.5H440L440,525L440,525z M443.6,503.9h9.5
	c2.5,0,4.2-1.6,4.2-3.8s-1.5-3.8-4.2-3.8h-9.5V503.9z M443.6,518.6h9.7c2.8,0,4.6-1.6,4.6-4.2c0-2.2-1.5-4.2-4.6-4.2h-9.7V518.6z
	 M504.2,520.2c0.1,0.4,0.2,0.9,0.2,1.3c0,2.1-1.8,3.8-3.8,3.8c-1.6,0-3.1-1-3.6-2.5l-1.4-4.2h-16l-1.4,4.2c-0.5,1.5-2,2.5-3.6,2.5
	c-2.2,0-3.8-1.6-3.8-3.8c0-0.5,0.1-0.9,0.2-1.3l10.4-26.6c0.9-2.4,3.4-4.3,6.1-4.3c2.8,0,5.3,1.8,6.1,4.3L504.2,520.2z M482,512.1
	h11.3l-5.7-16L482,512.1z M510.6,522.1c3.2,2.2,7.3,3.6,12.5,3.6c9.6,0,14.2-4.9,14.2-11.3c0-7.9-7.4-9.5-13.4-10.9
	c-4.2-0.9-7.1-1.6-7.1-4.2c0-2.1,1.8-3.6,5.8-3.6c2.4,0,5.3,0.8,8.1,2.3c0.5,0.2,1.2,0.5,1.8,0.5c1.8,0,3.5-1.5,3.5-3.5
	c0-1.3-0.8-2.4-1.8-3c-3.5-2-6.9-3-11.1-3c-8.9,0-14,4.7-14,10.6c0,7.9,7.4,9.5,13.2,10.8c4.2,0.9,7.2,1.8,7.2,4.5
	c0,2.1-2.1,3.9-6.1,3.9c-3.6,0-6.6-1.2-9-2.8c-0.7-0.4-1.3-0.7-2.1-0.7c-2,0-3.5,1.5-3.5,3.6C509,520.4,509.6,521.4,510.6,522.1z
	 M547.9,525.3c2.1,0,3.7-1.8,3.7-3.7v-28.4c0-2.1-1.6-3.7-3.7-3.7c-2.2,0-3.8,1.6-3.8,3.7v28.4C544,523.6,545.8,525.3,547.9,525.3z
	 M587.5,525.3c2.5,0,4.6-2.1,4.6-4.6v-27.5c0-2.1-1.6-3.7-3.7-3.7c-2.2,0-3.7,1.6-3.7,3.7v19.4l-15.2-21.1c-0.9-1.3-2.4-2.1-3.9-2.1
	c-2.8,0-5,2.2-5,4.9v27.3c0,2.1,1.6,3.7,3.8,3.7c2.1,0,3.7-1.8,3.7-3.7v-20.3l15.7,22.1C584.5,524.6,586,525.3,587.5,525.3z"/>
<path id="Shape" fill="#FAD46B" d="M180.6,492.4c-4.1-0.9-9.5-1.3-15.2-1.3s-11.2,0.5-15.2,1.3c-5.4,1.1-8,2.7-8,5.3
	c0,0.2,0,0.4,0,0.5c0.4,3.9,3.3,23.9,23.2,23.9s22.8-19.9,23.2-23.8c0-0.2,0-0.4,0-0.5C188.6,495.1,186,493.5,180.6,492.4
	L180.6,492.4z M165.3,501.6c-12.6,0-20.4-2.2-20.4-3.7c0-1.6,7.8-3.7,20.4-3.7c12.6,0,20.4,2.2,20.4,3.7
	C185.8,499.4,178,501.6,165.3,501.6L165.3,501.6z"/>
<g enable-background="new    ">
	<path fill="#4B4B4B" d="M214.5,513.3c-0.2,0-0.7,0-1.6-0.1c-0.1,1.7-0.1,4.6-0.1,8.5c0,0.7-0.2,1.2-0.7,1.7c-0.5,0.5-1,0.7-1.8,0.7
		c-0.7,0-1.3-0.2-1.8-0.7c-0.5-0.5-0.7-1-0.7-1.7v-5.2c0-1.9,0.1-4.8,0.4-8.5c0.2-3.8,0.4-6.7,0.4-8.5c0-3.2,0.9-4.8,2.7-4.6
		c0.4-0.1,1-0.2,1.8-0.3c0.7-0.1,1.7-0.1,2.7-0.1c2.4,0,4.7,0.8,6.9,2.4c2.4,1.8,3.6,3.9,3.6,6.4c0,3.2-1.3,5.7-3.8,7.5
		C220.3,512.5,217.6,513.3,214.5,513.3z M215.5,499.3c-0.4,0-0.8,0-1.1,0c-0.3,0-0.6,0-0.8,0c0,0.6,0,1.5,0,2.6
		c0,1.4-0.1,3.5-0.4,6.4c0.6,0.1,1.1,0.1,1.3,0.1c1.9,0,3.6-0.5,4.8-1.4c1.4-1,2.1-2.3,2.1-3.9c0-1-0.6-2-1.9-2.8
		C218.3,499.7,216.9,499.3,215.5,499.3z"/>
	<path fill="#4B4B4B" d="M236.8,524.8c-2.3,0-4.3-0.8-5.9-2.4c-1.8-1.7-2.8-4-2.9-6.9c-0.1-2.7,0.7-5.2,2.3-7.3
		c1.9-2.5,4.5-3.8,7.9-3.8c2.5,0,4.5,1,5.9,3c1.3,1.8,2,4,2,6.6c0,2.9-0.8,5.3-2.3,7.3C242,523.6,239.7,524.8,236.8,524.8z
		 M237.9,509.3c-1.5,0-2.7,0.7-3.6,2.1c-0.7,1.2-1.1,2.5-1.1,4.1c0,1.5,0.4,2.6,1.3,3.4c0.7,0.6,1.5,0.9,2.4,0.9
		c1.1,0,2-0.4,2.8-1.1c0.9-0.9,1.4-2,1.5-3.5C241.2,511.4,240.2,509.4,237.9,509.3z"/>
	<path fill="#4B4B4B" d="M273.1,507.3c-1.3,4.8-2.6,9.2-3.9,13.2c-0.4,1.1-1,2.3-1.8,3.4c-0.6,0.8-1.4,1.2-2.4,1.2
		c-1.6,0-2.8-1.5-3.7-4.5c-0.3-1.1-0.7-3.3-1.2-6.4c-0.3,0.5-0.4,0.9-0.5,1.1c-0.6,1.5-1.6,3.9-2.8,7.1c-0.2,0.5-0.5,0.9-0.8,1.2
		c-0.5,0.8-1.3,1.3-2.3,1.3c-0.6,0-1.2-0.5-1.9-1.6c-0.7-1.1-1.2-2.5-1.7-4.2c-0.4-1.5-1-4.9-1.8-10c-0.2-1.1-0.3-2-0.3-2.6
		c0-0.7,0.3-1.2,0.8-1.7c0.5-0.5,1.1-0.7,1.9-0.7c1.3,0,2.2,0.7,2.5,2c0.2,0.7,0.3,1.5,0.4,2.6c0.1,1.5,0.2,2.3,0.3,2.6
		c0.2,1,0.4,2.5,0.7,4.7c0.9-2.5,2-5.6,3.2-9.4c0.5-1.6,1.5-2.4,2.9-2.4c1.4,0,2.3,0.9,2.7,2.7c0.3,1.3,0.6,2.9,1,4.9
		c0.5,2.9,0.8,4.7,0.9,5.2c0.1-0.4,1.1-4.1,2.9-11.3c0.3-1.1,1.1-1.6,2.3-1.6c0.7,0,1.3,0.2,1.9,0.7c0.5,0.5,0.8,1,0.8,1.7
		C273.2,506.9,273.2,507.1,273.1,507.3z"/>
	<path fill="#4B4B4B" d="M284.8,524.5c-3,0-5.4-0.7-7.3-2.1c-2.1-1.6-3.1-3.8-3.1-6.6c0-3.1,0.8-5.8,2.5-7.9
		c1.8-2.4,4.3-3.6,7.5-3.6c2.2,0,4,0.3,5.4,1c1.9,0.9,2.8,2.3,2.8,4.3c0,1.4-0.8,2.6-2.3,3.6c-0.7,0.5-2.1,1.2-4.2,2.1l-6.3,2.8
		c0.6,0.6,1.3,1.1,2.2,1.4c0.8,0.3,1.8,0.5,2.9,0.5c1.7,0,3.1-0.3,4.2-1c1-0.6,1.9-0.9,2.5-0.9c1.3,0,1.9,0.6,1.9,1.9
		c0,1.4-1,2.6-3.1,3.4C288.7,524.2,286.8,524.5,284.8,524.5z M284.3,508.8c-1.2,0-2.1,0.4-3,1.1c-0.8,0.8-1.5,1.9-2,3.4
		c1.4-0.6,2.8-1.2,4.2-1.8c1.7-0.8,3-1.5,4-2.1C286.8,509,285.7,508.8,284.3,508.8z"/>
	<path fill="#4B4B4B" d="M312.5,510.3c-0.1,1.9-1,2.8-2.6,2.8c-1.6,0-2.4-0.8-2.4-2.4l-0.1-1.9c-2.8,0.4-4.8,1.9-6,4.3l0,9.3
		c0,0.7-0.2,1.3-0.7,1.8c-0.5,0.5-1.1,0.7-1.9,0.7c-0.8,0-1.4-0.2-1.8-0.7c-0.4-0.4-0.6-1-0.6-1.7v-12.1c0-0.4,0-1,0-1.7
		c0-0.8,0-1.3,0-1.7c0-0.7,0.2-1.3,0.6-1.7c0.4-0.5,1-0.7,1.8-0.7c1.4,0,2.2,0.7,2.5,2.1c2.2-1.6,4.7-2.4,7.3-2.4
		c2.5,0,3.7,1.6,3.7,4.9C312.5,509.7,312.5,510.1,312.5,510.3z"/>
	<path fill="#4B4B4B" d="M324.7,524.5c-3,0-5.4-0.7-7.3-2.1c-2.1-1.6-3.1-3.8-3.1-6.6c0-3.1,0.8-5.8,2.5-7.9
		c1.8-2.4,4.3-3.6,7.5-3.6c2.2,0,4,0.3,5.4,1c1.9,0.9,2.8,2.3,2.8,4.3c0,1.4-0.8,2.6-2.3,3.6c-0.7,0.5-2.1,1.2-4.2,2.1l-6.3,2.8
		c0.6,0.6,1.3,1.1,2.2,1.4c0.8,0.3,1.8,0.5,2.9,0.5c1.7,0,3.1-0.3,4.2-1c1-0.6,1.9-0.9,2.5-0.9c1.3,0,1.9,0.6,1.9,1.9
		c0,1.4-1,2.6-3.1,3.4C328.5,524.2,326.6,524.5,324.7,524.5z M324.1,508.8c-1.2,0-2.1,0.4-3,1.1c-0.8,0.8-1.5,1.9-2,3.4
		c1.4-0.6,2.8-1.2,4.2-1.8c1.7-0.8,3-1.5,4-2.1C326.6,509,325.5,508.8,324.1,508.8z"/>
	<path fill="#4B4B4B" d="M350.3,505c0.2-4.2,0.4-7.1,0.6-8.7c0.2-1.5,1-2.2,2.4-2.2c0.7,0,1.3,0.2,1.8,0.7c0.4,0.5,0.7,1.1,0.7,1.7
		c0,1.8-0.1,4.5-0.4,8.1c-0.3,3.6-0.4,6.3-0.4,8.1c0,4.4,0.1,7.4,0.4,8.9c0,0.2,0.1,0.4,0.1,0.5c0,0.7-0.2,1.3-0.7,1.7
		c-0.5,0.4-1.1,0.7-1.7,0.7c-0.9,0-1.6-0.4-2.1-1.2c-0.8,0.5-1.7,0.8-2.6,1s-1.9,0.2-2.8,0.2c-2.8,0-5.1-0.9-7-2.7
		c-1.9-1.8-2.8-4.1-2.8-6.9c0-3.3,0.9-6,2.8-8.1c1.9-2,4.4-3.1,7.4-3.1c0.9,0,1.8,0.1,2.5,0.3S349.8,504.6,350.3,505z M349.9,510.9
		c-0.4-0.8-0.9-1.4-1.6-1.7c-0.7-0.4-1.4-0.6-2.4-0.6c-1.8,0-3.2,0.5-4.2,1.6c-0.9,1.1-1.4,2.6-1.4,4.8c0,1.3,0.5,2.5,1.5,3.4
		c1,1,2.2,1.4,3.5,1.4c1,0,1.7-0.1,2.2-0.3c0.3-0.1,0.9-0.5,1.7-1.2c0.2-0.2,0.4-0.4,0.6-0.6C349.9,517.1,349.9,514.8,349.9,510.9z"
		/>
	<path fill="#4B4B4B" d="M384.6,524.5c-1.7,0-3.4-0.3-5-0.9c-0.5,0.5-1,0.7-1.7,0.7c-0.7,0-1.3-0.2-1.7-0.7c-0.5-0.4-0.7-1-0.7-1.7
		c0-0.3,0-0.8,0.1-1.4c0-0.6,0.1-1.1,0.1-1.4v-21c0-0.9,0.2-1.7,0.6-2.4c0.5-0.9,1.2-1.3,2.1-1.3c1.3,0,2,0.7,2,2.1
		c0,0.2,0,0.4-0.1,0.8c0,0.4-0.1,0.6-0.1,0.8v7.1c0.9-0.5,1.8-0.9,2.7-1.1c0.8-0.3,1.7-0.4,2.4-0.4c2.9,0,5.3,1.1,7.1,3.2
		c1.7,2,2.5,4.4,2.5,7.2c0,2.9-1,5.3-2.9,7.3C390,523.4,387.5,524.5,384.6,524.5z M385.3,508.5c-0.6,0-1.4,0.2-2.2,0.6
		c-0.8,0.4-1.8,0.9-2.9,1.7c0,1.2,0,3.8,0,7.9c1.7,0.7,3.2,1.1,4.4,1.1c1.6,0,2.9-0.5,3.9-1.6c1-1.1,1.5-2.4,1.5-4
		c0-1.6-0.4-2.9-1.3-4C387.9,509,386.8,508.5,385.3,508.5z"/>
	<path fill="#4B4B4B" d="M417,508c-1.4,2.8-3.5,7.2-6.5,13.2c-1.6,3.2-2.8,5.9-3.6,8c-0.3,0.8-0.7,1.9-1.2,3.4
		c-0.4,1.2-1.2,1.7-2.4,1.7c-0.7,0-1.3-0.2-1.9-0.7s-0.8-1-0.8-1.7c0-1.2,1.3-4.6,4-10.2c-1.4-2.7-3.5-6.6-6.5-11.8
		c-0.3-0.5-0.6-0.9-0.9-1.4c-0.3-0.6-0.5-1.1-0.5-1.6c0-0.7,0.3-1.3,0.8-1.8c0.5-0.5,1.2-0.8,1.9-0.8c0.8,0,1.5,0.3,1.9,0.9
		c1.8,2.3,3.8,5.9,6.2,10.5c1.3-2.9,2.1-4.7,2.4-5.3c0.9-1.8,1.8-3.5,2.6-4.9c0.5-0.9,1.3-1.3,2.2-1.3c0.7,0,1.3,0.2,1.9,0.7
		c0.5,0.5,0.8,1,0.8,1.7C417.3,507.2,417.2,507.6,417,508z"/>
</g>
</svg>
