<?xml version="1.0" encoding="utf-8"?>
<!-- Generator: Adobe Illustrator 17.1.0, SVG Export Plug-In . SVG Version: 6.00 Build 0)  -->
<!DOCTYPE svg PUBLIC "-//W3C//DTD SVG 1.1//EN" "http://www.w3.org/Graphics/SVG/1.1/DTD/svg11.dtd">
<svg version="1.1" id="Capa_1" xmlns="http://www.w3.org/2000/svg" xmlns:xlink="http://www.w3.org/1999/xlink" x="0px" y="0px"
	 viewBox="0.118 42.578 113.154 113.214" enable-background="new 0.118 42.578 113.154 113.214" xml:space="preserve">
<path fill="#731249" d="M29.292,83.624c1.89-1.89,4.252-3.78,6.614-5.197c13.701-7.559,31.182-3.307,39.687,9.922L65.199,98.743
	c-2.835-7.087-10.394-10.867-17.953-8.977c-2.835,0.472-5.669,1.89-7.559,4.252l-20.316,20.316c-6.142,6.142-6.142,16.064,0,22.206
	s16.064,6.142,22.206,0l6.142-6.142c5.669,2.362,11.811,3.307,17.953,2.835L51.97,146.933c-11.811,11.811-31.182,11.811-42.994,0
	c-11.811-11.811-11.811-31.182,0-42.994C8.977,103.94,29.292,83.624,29.292,83.624z M61.42,51.497L47.718,65.198
	c6.142-0.472,12.284,0.472,17.953,2.835l6.142-6.142c6.142-6.142,16.064-6.142,22.206,0c6.142,6.142,6.142,16.064,0,22.206
	l-20.316,20.316c-6.142,6.142-16.064,6.142-22.206,0c-1.417-1.417-2.835-3.307-3.307-5.197l-10.394,10.394
	c0.945,1.89,2.362,3.307,3.78,4.725c3.78,3.78,8.504,6.614,14.174,8.032c7.087,1.89,15.119,0.945,21.733-2.835
	c2.362-1.417,4.725-2.835,6.614-5.197l20.316-20.316c11.811-11.811,11.811-31.182,0-42.994
	C92.602,39.685,73.231,39.685,61.42,51.497z"/>
</svg>
