<?xml version="1.0" encoding="utf-8"?>
<!-- Generator: Adobe Illustrator 17.1.0, SVG Export Plug-In . SVG Version: 6.00 Build 0)  -->
<!DOCTYPE svg PUBLIC "-//W3C//DTD SVG 1.1//EN" "http://www.w3.org/Graphics/SVG/1.1/DTD/svg11.dtd">
<svg version="1.1" id="Capa_1" xmlns="http://www.w3.org/2000/svg" xmlns:xlink="http://www.w3.org/1999/xlink" x="0px" y="0px"
	 viewBox="0 140.5 231 231" enable-background="new 0 140.5 231 231" xml:space="preserve">
<path fill="#D9D9D8" d="M115.5,159.8c52.9,0,96.3,43.3,96.3,96.3s-43.3,96.3-96.3,96.3S19.3,308.9,19.3,256S62.6,159.8,115.5,159.8z
	 M115.5,140.5C52,140.5,0,192.5,0,256s52,115.5,115.5,115.5S231,319.5,231,256S179,140.5,115.5,140.5z M163.6,289.7L129,256
	l34.7-34.7l-14.4-13.5l-33.7,34.7l-34.7-34.7l-13.5,14.4L102,257l-34.7,33.7l14.4,13.5l34.7-34.6l34.7,34.6L163.6,289.7z"/>
</svg>
