<?xml version="1.0" encoding="utf-8"?>
<!-- Generator: Adobe Illustrator 17.1.0, SVG Export Plug-In . SVG Version: 6.00 Build 0)  -->
<!DOCTYPE svg PUBLIC "-//W3C//DTD SVG 1.1//EN" "http://www.w3.org/Graphics/SVG/1.1/DTD/svg11.dtd">
<svg version="1.1" id="Capa_1" xmlns="http://www.w3.org/2000/svg" xmlns:xlink="http://www.w3.org/1999/xlink" x="0px" y="0px"
	 viewBox="0 0 24 24" enable-background="new 0 0 24 24" xml:space="preserve">
<polygon points="20,9.8 20,22 2,22 2,4 13.7,4 13.7,2 0,2 0,24 22,24 22,9.8 "/>
<g>
	<g>
		<polyline fill="none" stroke="#000000" stroke-width="2" stroke-miterlimit="10" points="3.3,14.2 8,8 14,10.5 20.9,3.2 		"/>
		<g>
			<polygon points="22.6,6 24,0 18.1,1.8 			"/>
		</g>
	</g>
</g>
<g>
	<path d="M9.1,16.6h1.7v-1.7h1.2v1.7h1.7v1.2h-1.7v1.7h-1.2v-1.7H9.1V16.6z"/>
	<path d="M18.5,13.3v1.2h-2.4v1.3c0.3-0.4,0.7-0.5,1.1-0.5c0.5,0,0.9,0.1,1.2,0.4s0.4,0.9,0.4,1.7v1.1c0,0.5,0,0.9-0.1,1.2
		c-0.1,0.3-0.2,0.5-0.3,0.7S18,20.8,17.7,21c-0.3,0.1-0.7,0.2-1.1,0.2c-0.5,0-0.9-0.1-1.3-0.3c-0.4-0.2-0.6-0.4-0.8-0.8
		c-0.2-0.3-0.2-0.9-0.2-1.6v-0.4h1.9v0.5c0,0.5,0,0.8,0.1,1.1s0.2,0.3,0.4,0.3c0.1,0,0.2,0,0.2-0.1s0.1-0.1,0.1-0.2
		c0-0.1,0-0.4,0-0.9v-1.5c0-0.3,0-0.5-0.1-0.6c-0.1-0.1-0.2-0.2-0.3-0.2c-0.1,0-0.2,0-0.2,0.1c-0.1,0.1-0.1,0.1-0.1,0.2
		c0,0.1,0,0.2,0,0.4h-1.9l0.1-3.9L18.5,13.3L18.5,13.3z"/>
</g>
</svg>
