<?xml version="1.0" encoding="utf-8"?>
<!-- Generator: Adobe Illustrator 17.1.0, SVG Export Plug-In . SVG Version: 6.00 Build 0)  -->
<!DOCTYPE svg PUBLIC "-//W3C//DTD SVG 1.1//EN" "http://www.w3.org/Graphics/SVG/1.1/DTD/svg11.dtd">
<svg version="1.1" id="Capa_1" xmlns="http://www.w3.org/2000/svg" xmlns:xlink="http://www.w3.org/1999/xlink" x="0px" y="0px"
	 viewBox="0 229.5 65 53" enable-background="new 0 229.5 65 53" xml:space="preserve">
<g>
	<path fill="#4B4B4B" d="M35.4,242.8h3.5v0.2c0,7.1,0,14.3,0,21.4c0,0.8-0.2,1.5-0.6,2.2c-0.7,1.5-1.9,2.5-3.5,3
		c-1.4,0.5-2.7,0.5-4.1,0c-1.3-0.5-2.4-1.3-3.1-2.5c-0.5-0.8-0.7-1.6-0.8-2.4c0-0.2,0-0.5,0-0.7c0-7,0-13.9,0-20.9c0,0,0-0.1,0-0.2
		h3.5c0,0.1,0,0.1,0,0.2c0,7,0,14,0,21c0,1.1,0.6,1.9,1.6,2.3c1.8,0.8,3.6-0.6,3.6-2.3c0-7,0-14,0-21L35.4,242.8L35.4,242.8z"/>
	<path fill="#4B4B4B" d="M54.2,261.8c-0.4,0.4-0.8,0.8-1.2,1.2c-1,0.9-1.9,1.8-2.9,2.8c-0.8,0.8-1.7,1.6-2.5,2.4
		c-0.9,0.8-1.7,1.7-2.6,2.5c-0.7,0.7-1.5,1.4-2.2,2.1c-0.7,0.7-1.5,1.4-2.2,2.1c-0.7,0.7-1.4,1.4-2.2,2.1c-0.9,0.9-1.8,1.7-2.7,2.6
		c-1,1-2,1.9-3,2.9c-0.3-0.3-0.7-0.6-1-1c-0.2-0.2-0.3-0.3-0.5-0.5c-1-0.9-1.9-1.9-2.9-2.8c-0.7-0.7-1.5-1.4-2.2-2.1
		c-0.7-0.7-1.5-1.4-2.2-2.1c-0.7-0.7-1.5-1.4-2.2-2.1c-0.7-0.7-1.4-1.3-2.1-2c-0.7-0.6-1.3-1.3-2-1.9c-1-0.9-1.9-1.9-2.9-2.8
		c-0.9-0.8-1.7-1.7-2.6-2.5c-0.2-0.2-0.5-0.4-0.7-0.6c0,0-0.1-0.1-0.1-0.1c2.4,0.8,4.6,1.9,6.8,3.2c2.1,1.3,4.1,2.8,5.9,4.5
		c1.8,1.7,3.5,3.5,5,5.5c1.5,2,2.6,4.1,3.7,6.3c0,0,0,0,0.1,0c0.1-0.2,0.3-0.5,0.4-0.7c0.7-1.6,1.6-3.1,2.5-4.5
		c0.8-1.2,1.8-2.4,2.7-3.5c1-1.2,2.1-2.3,3.3-3.4c1.3-1.2,2.8-2.3,4.3-3.3c1.2-0.8,2.4-1.5,3.7-2.1c0.8-0.4,1.6-0.8,2.5-1.1
		C52.9,262.3,53.6,262.1,54.2,261.8"/>
	<path fill="#4B4B4B" d="M57,259.4c0.4-2.8-0.2-5.4-1.9-7.8c0.9,0.3,1.7,0.7,2.5,1.2c0.7,0.5,1.4,1.2,1.9,1.9c1.4-1.4,3.1-2.2,5-2.6
		c-0.2,0.9-0.5,1.8-0.9,2.6c-0.5,0.8-1,1.6-1.7,2.2c1.6,1,2.7,2.4,3.2,4.2C62.6,259.6,59.9,259,57,259.4"/>
	<path fill="#4B4B4B" d="M25.7,235.5c1.7-0.8,3.4-1.1,5.3-0.7c0-0.9,0.1-1.9,0.4-2.8c0.3-0.9,0.7-1.7,1.3-2.5c0.6,0.8,1,1.6,1.3,2.5
		c0.3,0.9,0.4,1.8,0.4,2.8c1.9-0.4,3.7-0.1,5.4,0.7c-3,0.5-5.3,1.9-7.1,4.2C31,237.4,28.6,236,25.7,235.5"/>
	<path fill="#4B4B4B" d="M8,259.3c-2.9-0.4-5.6,0.2-8,1.9c0.6-1.8,1.6-3.2,3.3-4.2c-0.7-0.7-1.3-1.4-1.7-2.2
		c-0.5-0.8-0.8-1.7-0.9-2.7c2,0.3,3.6,1.2,5,2.6c1.1-1.5,2.5-2.6,4.3-3.1c-0.8,1.1-1.4,2.4-1.8,3.7C7.9,256.6,7.8,257.9,8,259.3"/>
</g>
</svg>
