<?xml version="1.0" encoding="utf-8"?>
<!-- Generator: Adobe Illustrator 17.1.0, SVG Export Plug-In . SVG Version: 6.00 Build 0)  -->
<!DOCTYPE svg PUBLIC "-//W3C//DTD SVG 1.1//EN" "http://www.w3.org/Graphics/SVG/1.1/DTD/svg11.dtd">
<svg version="1.1" id="Capa_1" xmlns="http://www.w3.org/2000/svg" xmlns:xlink="http://www.w3.org/1999/xlink" x="0px" y="0px"
	 viewBox="0 0 340.6 32" enable-background="new 0 0 340.6 32" xml:space="preserve">
<g>
	<path fill="#C4001A" d="M0,17.2c0-0.8,0-1.6,0-2.4c0-0.2,0.1-0.4,0.1-0.6C0.8,7.8,5.4,2.4,11.6,0.7c1.1-0.3,2.1-0.4,3.2-0.7
		c0.8,0,1.6,0,2.4,0c0.2,0,0.3,0.1,0.5,0.1c6.5,0.7,11.9,5.2,13.7,11.5c0.3,1,0.4,2.1,0.6,3.2c0,0.8,0,1.6,0,2.4
		c0,0.2-0.1,0.4-0.1,0.6c-0.7,6.4-5.2,11.8-11.5,13.6c-1.1,0.3-2.1,0.4-3.2,0.7c-0.8,0-1.6,0-2.4,0c-0.2,0-0.3-0.1-0.5-0.1
		C7.8,31.2,2.4,26.7,0.6,20.3C0.4,19.3,0.2,18.2,0,17.2z M8.8,12.4c4.9,0,9.7,0,14.5,0c0-1.5,0-2.9,0-4.3c-4.8,0-9.6,0-14.5,0
		C8.8,9.5,8.8,10.9,8.8,12.4z M23.2,18.2c0-1.5,0-2.9,0-4.3c-4.9,0-9.7,0-14.5,0c0,1.5,0,2.9,0,4.3C13.6,18.2,18.4,18.2,23.2,18.2z
		 M16,19.7c-2.4,0-4.8,0-7.2,0c0,1.5,0,2.9,0,4.3c2.4,0,4.8,0,7.2,0C16,22.6,16,21.2,16,19.7z"/>
	<path fill="#FFFFFF" d="M8.8,12.4c0-1.4,0-2.8,0-4.3c4.8,0,9.6,0,14.5,0c0,1.4,0,2.8,0,4.3C18.4,12.4,13.6,12.4,8.8,12.4z"/>
	<path fill="#FFFFFF" d="M23.2,18.2c-4.8,0-9.6,0-14.5,0c0-1.4,0-2.8,0-4.3c4.8,0,9.6,0,14.5,0C23.2,15.3,23.2,16.7,23.2,18.2z"/>
	<path fill="#FFFFFF" d="M16,19.7c0,1.4,0,2.8,0,4.3c-2.4,0-4.8,0-7.2,0c0-1.4,0-2.8,0-4.3C11.1,19.7,13.5,19.7,16,19.7z"/>
</g>
<g>
	<path fill="#4B4B4B" d="M171.7,5.6v3.8h-8.2v4.4h6.3v3.7h-6.3v8.1h-4.8V5.6H171.7z"/>
	<path fill="#4B4B4B" d="M191.3,6.6c1.5,0.9,2.7,2.1,3.6,3.6c0.9,1.6,1.3,3.3,1.3,5.3c0,2-0.4,3.7-1.3,5.3c-0.9,1.6-2.1,2.8-3.6,3.7
		c-1.5,0.9-3.2,1.3-5.1,1.3s-3.6-0.4-5.1-1.3c-1.5-0.9-2.7-2.1-3.6-3.7c-0.9-1.6-1.3-3.3-1.3-5.3c0-2,0.4-3.7,1.3-5.3
		c0.9-1.6,2.1-2.8,3.6-3.6c1.5-0.9,3.2-1.3,5.1-1.3C188.1,5.3,189.8,5.8,191.3,6.6z M182.4,11.4c-0.9,1-1.4,2.4-1.4,4.2
		c0,1.7,0.5,3.1,1.4,4.2c0.9,1,2.2,1.6,3.8,1.6c1.6,0,2.8-0.5,3.8-1.6c0.9-1,1.4-2.4,1.4-4.2s-0.5-3.1-1.4-4.2
		c-0.9-1-2.2-1.6-3.8-1.6C184.6,9.8,183.4,10.3,182.4,11.4z"/>
	<path fill="#4B4B4B" d="M211.8,25.6l-4.3-7.5h-1.1v7.5h-4.8V5.6h8.2c1.6,0,2.9,0.3,4,0.8c1.1,0.5,1.9,1.3,2.5,2.2
		c0.5,1,0.8,2,0.8,3.3c0,1.4-0.4,2.7-1.2,3.7c-0.8,1-2,1.7-3.5,2.1l4.7,7.8H211.8z M206.4,14.8h3c1,0,1.7-0.2,2.1-0.6
		c0.5-0.4,0.7-1,0.7-1.9c0-0.8-0.2-1.4-0.7-1.9c-0.5-0.5-1.2-0.7-2.1-0.7h-3V14.8z"/>
	<path fill="#4B4B4B" d="M244.5,5.8v19.8h-4.8V13.2l-4.3,12.4h-4.2l-4.3-12.4v12.4h-4.8V5.8h5.9l5.4,13.8l5.3-13.8H244.5z"/>
	<path fill="#4B4B4B" d="M263.9,22.9c-0.5,0.9-1.3,1.6-2.4,2.1c-1,0.5-2.3,0.8-3.8,0.8c-2.2,0-4.1-0.5-5.5-1.6
		c-1.4-1.1-2.2-2.6-2.4-4.6h5.1c0.1,0.8,0.3,1.3,0.8,1.8s1,0.6,1.8,0.6c0.6,0,1.1-0.2,1.5-0.5c0.4-0.3,0.5-0.8,0.5-1.4
		c0-0.5-0.2-0.9-0.5-1.3c-0.3-0.3-0.7-0.6-1.2-0.8c-0.5-0.2-1.2-0.5-2-0.8c-1.3-0.4-2.3-0.9-3.1-1.3c-0.8-0.4-1.5-1-2.1-1.8
		c-0.6-0.8-0.9-1.8-0.9-3.1c0-1.2,0.3-2.2,0.9-3.1c0.6-0.9,1.4-1.5,2.5-2s2.3-0.7,3.7-0.7c2.2,0,4,0.5,5.3,1.6
		c1.3,1.1,2,2.5,2.2,4.3h-5.2c-0.1-0.7-0.3-1.2-0.7-1.6c-0.4-0.4-0.9-0.6-1.6-0.6c-0.6,0-1,0.2-1.4,0.5c-0.3,0.3-0.5,0.7-0.5,1.3
		c0,0.5,0.2,0.9,0.5,1.2c0.3,0.3,0.7,0.6,1.2,0.8c0.5,0.2,1.1,0.5,2,0.8c1.3,0.4,2.3,0.9,3.1,1.3c0.8,0.4,1.5,1,2.1,1.8
		c0.6,0.8,0.9,1.9,0.9,3.2C264.7,21,264.4,22,263.9,22.9z"/>
	<path fill="#4B4B4B" d="M274.8,18.6v7H270V5.6h7.8c2.4,0,4.2,0.6,5.4,1.8s1.9,2.8,1.9,4.8c0,1.2-0.3,2.3-0.8,3.3
		c-0.6,1-1.4,1.7-2.5,2.3s-2.4,0.8-4,0.8H274.8z M280.1,12.2c0-1.7-1-2.6-2.9-2.6h-2.5v5.2h2.5C279.2,14.7,280.1,13.9,280.1,12.2z"
		/>
	<path fill="#4B4B4B" d="M300.2,25.6l-4.3-7.5h-1.1v7.5H290V5.6h8.2c1.6,0,2.9,0.3,4,0.8c1.1,0.5,1.9,1.3,2.5,2.2
		c0.5,1,0.8,2,0.8,3.3c0,1.4-0.4,2.7-1.2,3.7c-0.8,1-2,1.7-3.5,2.1l4.7,7.8H300.2z M294.8,14.8h3c1,0,1.7-0.2,2.1-0.6
		c0.5-0.4,0.7-1,0.7-1.9c0-0.8-0.2-1.4-0.7-1.9c-0.5-0.5-1.2-0.7-2.1-0.7h-3V14.8z"/>
	<path fill="#4B4B4B" d="M315.3,9.5v4.2h6.7v3.6h-6.7v4.4h7.6v3.9h-12.4V5.6h12.4v3.8H315.3z"/>
	<path fill="#4B4B4B" d="M333,9.5v4.2h6.7v3.6H333v4.4h7.6v3.9h-12.4V5.6h12.4v3.8H333z"/>
</g>
<g enable-background="new    ">
	<path fill="#4B4B4B" d="M47.2,18.6c-0.1,0-0.4,0-0.8-0.1c-0.1,0.9-0.1,2.3-0.1,4.3c0,0.4-0.1,0.6-0.4,0.9s-0.5,0.4-0.9,0.4
		c-0.4,0-0.7-0.1-0.9-0.4c-0.3-0.3-0.4-0.5-0.4-0.9v-2.6c0-1,0.1-2.4,0.2-4.3c0.1-1.9,0.2-3.4,0.2-4.3c0-1.6,0.5-2.4,1.4-2.3
		c0.2-0.1,0.5-0.1,0.9-0.2c0.4-0.1,0.9-0.1,1.4-0.1c1.2,0,2.4,0.4,3.5,1.2c1.2,0.9,1.8,2,1.8,3.2c0,1.6-0.7,2.9-1.9,3.8
		C50.1,18.2,48.8,18.6,47.2,18.6z M47.7,11.6c-0.2,0-0.4,0-0.6,0c-0.2,0-0.3,0-0.4,0c0,0.3,0,0.8,0,1.3c0,0.7-0.1,1.8-0.2,3.2
		c0.3,0.1,0.6,0.1,0.7,0.1c1,0,1.8-0.3,2.4-0.7c0.7-0.5,1.1-1.2,1.1-2c0-0.5-0.3-1-1-1.4C49.1,11.8,48.4,11.6,47.7,11.6z"/>
	<path fill="#4B4B4B" d="M58.5,24.4c-1.2,0-2.2-0.4-3-1.2c-0.9-0.9-1.4-2-1.5-3.5c-0.1-1.4,0.4-2.6,1.2-3.7c1-1.3,2.3-1.9,4-1.9
		c1.3,0,2.3,0.5,3,1.5c0.7,0.9,1,2,1,3.3c0,1.5-0.4,2.7-1.2,3.7C61.1,23.8,59.9,24.4,58.5,24.4z M59,16.6c-0.8,0-1.4,0.4-1.8,1.1
		c-0.4,0.6-0.6,1.3-0.6,2.1c0,0.8,0.2,1.3,0.7,1.7c0.4,0.3,0.8,0.5,1.2,0.5c0.6,0,1-0.2,1.4-0.6c0.5-0.5,0.7-1,0.8-1.8
		C60.7,17.7,60.2,16.7,59,16.6z"/>
	<path fill="#4B4B4B" d="M76.7,15.6c-0.7,2.4-1.3,4.6-2,6.6c-0.2,0.6-0.5,1.2-0.9,1.7c-0.3,0.4-0.7,0.6-1.2,0.6
		c-0.8,0-1.4-0.8-1.9-2.3c-0.2-0.6-0.4-1.7-0.6-3.2c-0.2,0.3-0.2,0.5-0.3,0.6c-0.3,0.8-0.8,2-1.4,3.6c-0.1,0.3-0.3,0.5-0.4,0.6
		c-0.3,0.4-0.7,0.7-1.2,0.7c-0.3,0-0.6-0.3-1-0.8c-0.4-0.6-0.6-1.3-0.9-2.1c-0.2-0.8-0.5-2.5-0.9-5c-0.1-0.6-0.2-1-0.2-1.3
		c0-0.4,0.2-0.6,0.4-0.9c0.3-0.3,0.6-0.4,1-0.4c0.7,0,1.1,0.4,1.3,1c0.1,0.4,0.2,0.8,0.2,1.3c0.1,0.8,0.1,1.2,0.2,1.3
		c0.1,0.5,0.2,1.3,0.4,2.4c0.5-1.3,1-2.8,1.6-4.7c0.3-0.8,0.8-1.2,1.5-1.2s1.2,0.5,1.4,1.4c0.2,0.7,0.3,1.5,0.5,2.5
		c0.3,1.5,0.4,2.4,0.5,2.6c0.1-0.2,0.6-2.1,1.5-5.7c0.2-0.6,0.6-0.8,1.2-0.8c0.4,0,0.7,0.1,1,0.4c0.3,0.3,0.4,0.5,0.4,0.9
		C76.8,15.4,76.8,15.5,76.7,15.6z"/>
	<path fill="#4B4B4B" d="M82.6,24.3c-1.5,0-2.7-0.4-3.7-1.1c-1.1-0.8-1.6-1.9-1.6-3.3c0-1.6,0.4-2.9,1.3-4c0.9-1.2,2.2-1.8,3.8-1.8
		c1.1,0,2,0.2,2.7,0.5c1,0.5,1.4,1.2,1.4,2.2c0,0.7-0.4,1.3-1.2,1.8c-0.4,0.3-1.1,0.6-2.1,1.1L80.1,21c0.3,0.3,0.7,0.6,1.1,0.7
		c0.4,0.2,0.9,0.3,1.5,0.3c0.9,0,1.6-0.2,2.1-0.5c0.5-0.3,1-0.5,1.3-0.5c0.7,0,1,0.3,1,1c0,0.7-0.5,1.3-1.6,1.7
		C84.6,24.1,83.6,24.3,82.6,24.3z M82.4,16.3c-0.6,0-1.1,0.2-1.5,0.6c-0.4,0.4-0.8,1-1,1.7c0.7-0.3,1.4-0.6,2.1-0.9
		c0.9-0.4,1.5-0.8,2-1.1C83.6,16.4,83.1,16.3,82.4,16.3z"/>
	<path fill="#4B4B4B" d="M96.6,17.1c-0.1,1-0.5,1.4-1.3,1.4s-1.2-0.4-1.2-1.2l-0.1-1c-1.4,0.2-2.4,1-3,2.2v4.7
		c0,0.4-0.1,0.7-0.4,0.9c-0.3,0.3-0.6,0.4-1,0.4c-0.4,0-0.7-0.1-0.9-0.4c-0.2-0.2-0.3-0.5-0.3-0.9v-6.1c0-0.2,0-0.5,0-0.9
		c0-0.4,0-0.7,0-0.9c0-0.4,0.1-0.7,0.3-0.9c0.2-0.3,0.5-0.4,0.9-0.4c0.7,0,1.1,0.4,1.3,1.1c1.1-0.8,2.4-1.2,3.7-1.2
		c1.3,0,1.9,0.8,1.9,2.5C96.6,16.8,96.6,17,96.6,17.1z"/>
	<path fill="#4B4B4B" d="M102.7,24.3c-1.5,0-2.7-0.4-3.7-1.1c-1.1-0.8-1.6-1.9-1.6-3.3c0-1.6,0.4-2.9,1.3-4c0.9-1.2,2.2-1.8,3.8-1.8
		c1.1,0,2,0.2,2.7,0.5c1,0.5,1.4,1.2,1.4,2.2c0,0.7-0.4,1.3-1.2,1.8c-0.4,0.3-1.1,0.6-2.1,1.1l-3.2,1.4c0.3,0.3,0.7,0.6,1.1,0.7
		c0.4,0.2,0.9,0.3,1.5,0.3c0.9,0,1.6-0.2,2.1-0.5c0.5-0.3,1-0.5,1.3-0.5c0.7,0,1,0.3,1,1c0,0.7-0.5,1.3-1.6,1.7
		C104.7,24.1,103.7,24.3,102.7,24.3z M102.4,16.3c-0.6,0-1.1,0.2-1.5,0.6c-0.4,0.4-0.8,1-1,1.7c0.7-0.3,1.4-0.6,2.1-0.9
		c0.9-0.4,1.5-0.8,2-1.1C103.7,16.4,103.1,16.3,102.4,16.3z"/>
	<path fill="#4B4B4B" d="M115.6,14.4c0.1-2.1,0.2-3.6,0.3-4.4c0.1-0.8,0.5-1.1,1.2-1.1c0.4,0,0.7,0.1,0.9,0.4
		c0.2,0.3,0.4,0.6,0.4,0.9c0,0.9-0.1,2.3-0.2,4.1s-0.2,3.2-0.2,4.1c0,2.2,0.1,3.7,0.2,4.5c0,0.1,0.1,0.2,0.1,0.3
		c0,0.4-0.1,0.7-0.4,0.9c-0.3,0.2-0.6,0.4-0.9,0.4c-0.5,0-0.8-0.2-1.1-0.6c-0.4,0.3-0.9,0.4-1.3,0.5s-1,0.1-1.4,0.1
		c-1.4,0-2.6-0.5-3.5-1.4c-1-0.9-1.4-2.1-1.4-3.5c0-1.7,0.5-3,1.4-4.1c1-1,2.2-1.6,3.7-1.6c0.5,0,0.9,0.1,1.3,0.2
		S115.4,14.2,115.6,14.4z M115.4,17.4c-0.2-0.4-0.5-0.7-0.8-0.9c-0.4-0.2-0.7-0.3-1.2-0.3c-0.9,0-1.6,0.3-2.1,0.8
		c-0.5,0.6-0.7,1.3-0.7,2.4c0,0.7,0.3,1.3,0.8,1.7c0.5,0.5,1.1,0.7,1.8,0.7c0.5,0,0.9-0.1,1.1-0.2c0.2-0.1,0.5-0.3,0.9-0.6
		c0.1-0.1,0.2-0.2,0.3-0.3C115.4,20.5,115.4,19.4,115.4,17.4z"/>
	<path fill="#4B4B4B" d="M132.9,24.3c-0.9,0-1.7-0.2-2.5-0.5c-0.3,0.3-0.5,0.4-0.9,0.4s-0.7-0.1-0.9-0.4c-0.3-0.2-0.4-0.5-0.4-0.9
		c0-0.2,0-0.4,0.1-0.7c0-0.3,0.1-0.6,0.1-0.7V11c0-0.5,0.1-0.9,0.3-1.2c0.3-0.5,0.6-0.7,1.1-0.7c0.7,0,1,0.4,1,1.1
		c0,0.1,0,0.2-0.1,0.4c0,0.2-0.1,0.3-0.1,0.4v3.6c0.5-0.3,0.9-0.5,1.4-0.6c0.4-0.2,0.9-0.2,1.2-0.2c1.5,0,2.7,0.6,3.6,1.6
		c0.9,1,1.3,2.2,1.3,3.6c0,1.5-0.5,2.7-1.5,3.7C135.6,23.7,134.4,24.3,132.9,24.3z M133.3,16.2c-0.3,0-0.7,0.1-1.1,0.3
		c-0.4,0.2-0.9,0.5-1.5,0.9c0,0.6,0,1.9,0,4c0.9,0.4,1.6,0.6,2.2,0.6c0.8,0,1.5-0.3,2-0.8s0.8-1.2,0.8-2c0-0.8-0.2-1.5-0.7-2
		C134.6,16.4,134,16.2,133.3,16.2z"/>
	<path fill="#4B4B4B" d="M149.2,15.9c-0.7,1.4-1.8,3.6-3.3,6.6c-0.8,1.6-1.4,3-1.8,4c-0.2,0.4-0.4,1-0.6,1.7
		c-0.2,0.6-0.6,0.9-1.2,0.9c-0.4,0-0.7-0.1-1-0.4c-0.3-0.3-0.4-0.5-0.4-0.9c0-0.6,0.7-2.3,2-5.1c-0.7-1.4-1.8-3.3-3.3-5.9
		c-0.2-0.3-0.3-0.5-0.5-0.7c-0.2-0.3-0.3-0.6-0.3-0.8c0-0.4,0.2-0.7,0.4-0.9c0.3-0.3,0.6-0.4,1-0.4c0.4,0,0.8,0.2,1,0.5
		c0.9,1.2,1.9,3,3.1,5.3c0.7-1.5,1.1-2.4,1.2-2.7c0.5-0.9,0.9-1.8,1.3-2.5c0.3-0.5,0.7-0.7,1.1-0.7c0.4,0,0.7,0.1,1,0.4
		c0.3,0.3,0.4,0.5,0.4,0.9C149.4,15.5,149.3,15.7,149.2,15.9z"/>
</g>
</svg>
