<?xml version="1.0" encoding="utf-8"?>
<!-- Generator: Adobe Illustrator 17.1.0, SVG Export Plug-In . SVG Version: 6.00 Build 0)  -->
<!DOCTYPE svg PUBLIC "-//W3C//DTD SVG 1.1//EN" "http://www.w3.org/Graphics/SVG/1.1/DTD/svg11.dtd">
<svg version="1.1" id="Capa_1" xmlns="http://www.w3.org/2000/svg" xmlns:xlink="http://www.w3.org/1999/xlink" x="0px" y="0px"
	 viewBox="0 0 196.089 45" enable-background="new 0 0 196.089 45" xml:space="preserve">
<g>
	<path fill="#FFFFFF" d="M30.032,11.319H33v0.148c0,6.066,0.006,12.132-0.007,18.197c-0.001,0.638-0.203,1.252-0.5,1.832
		c-0.634,1.238-1.637,2.096-2.993,2.566c-1.148,0.398-2.313,0.383-3.45-0.029c-1.144-0.416-2.037-1.136-2.664-2.143
		c-0.398-0.64-0.621-1.334-0.702-2.069c-0.025-0.21-0.035-0.423-0.035-0.634c-0.001-5.91-0.001-11.819-0.001-17.729
		c0-0.042,0-0.083,0-0.136h2.984c0,0.062,0,0.122,0,0.183c0,5.929-0.004,11.857,0.002,17.786c0.001,0.94,0.49,1.637,1.329,1.994
		c1.52,0.646,3.068-0.511,3.068-1.946c0-5.952,0-11.904,0-17.856V11.319z"/>
	<path fill="#FFFFFF" d="M46.015,27.427c-0.354,0.348-0.699,0.693-1.05,1.033c-0.809,0.78-1.62,1.558-2.43,2.338
		c-0.701,0.674-1.402,1.35-2.104,2.026c-0.73,0.703-1.459,1.405-2.188,2.108c-0.621,0.598-1.242,1.197-1.862,1.795
		c-0.627,0.605-1.255,1.21-1.882,1.815c-0.61,0.59-1.218,1.18-1.829,1.768c-0.763,0.735-1.53,1.47-2.293,2.208
		c-0.848,0.821-1.696,1.645-2.558,2.483c-0.284-0.274-0.563-0.54-0.841-0.808c-0.136-0.13-0.271-0.263-0.407-0.394
		c-0.824-0.793-1.649-1.585-2.472-2.378c-0.627-0.605-1.255-1.21-1.882-1.815c-0.628-0.605-1.255-1.211-1.882-1.816
		c-0.627-0.605-1.254-1.21-1.881-1.816c-0.586-0.565-1.17-1.131-1.756-1.697c-0.56-0.542-1.12-1.083-1.681-1.626
		c-0.821-0.794-1.642-1.59-2.464-2.385c-0.741-0.718-1.482-1.436-2.224-2.152c-0.192-0.184-0.39-0.363-0.585-0.545
		c-0.035-0.033-0.067-0.067-0.09-0.113c2.036,0.677,3.945,1.596,5.761,2.694c1.817,1.1,3.515,2.344,5.047,3.786
		c1.531,1.439,2.938,2.976,4.209,4.63c1.274,1.658,2.237,3.478,3.124,5.34c0.017-0.001,0.036-0.002,0.053-0.004
		c0.105-0.193,0.223-0.382,0.317-0.58c0.621-1.324,1.323-2.607,2.159-3.821c0.71-1.03,1.494-2.009,2.332-2.951
		c0.888-0.999,1.817-1.962,2.814-2.862c1.144-1.034,2.367-1.976,3.667-2.831c1.002-0.658,2.034-1.267,3.104-1.814
		c0.686-0.35,1.389-0.671,2.099-0.976C44.887,27.828,45.457,27.637,46.015,27.427"/>
	<path fill="#FFFFFF" d="M48.347,25.383c0.361-2.398-0.151-4.584-1.636-6.584c0.787,0.223,1.47,0.566,2.095,1.025
		c0.623,0.456,1.148,0.995,1.579,1.64c1.184-1.158,2.593-1.892,4.284-2.171c-0.14,0.792-0.391,1.532-0.772,2.235
		c-0.382,0.706-0.887,1.324-1.47,1.901c1.344,0.886,2.28,2.038,2.754,3.56C53.115,25.56,50.852,25.024,48.347,25.383"/>
	<path fill="#FFFFFF" d="M21.815,5.092c1.423-0.718,2.922-0.945,4.514-0.623c0.028-0.804,0.115-1.585,0.362-2.349
		C26.936,1.362,27.29,0.66,27.791,0c0.467,0.676,0.852,1.368,1.083,2.13c0.23,0.76,0.356,1.534,0.335,2.343
		c1.604-0.325,3.108-0.101,4.575,0.625c-2.544,0.391-4.52,1.597-6.017,3.546C26.276,6.702,24.314,5.496,21.815,5.092"/>
	<path fill="#FFFFFF" d="M6.832,25.288c-2.503-0.362-4.77,0.15-6.832,1.586c0.493-1.506,1.397-2.687,2.768-3.562
		c-0.61-0.558-1.09-1.196-1.475-1.895c-0.387-0.701-0.642-1.446-0.78-2.252c1.689,0.275,3.088,1.033,4.286,2.182
		c0.893-1.289,2.088-2.192,3.651-2.644c-0.712,0.956-1.222,2-1.499,3.137C6.672,22.974,6.626,24.121,6.832,25.288"/>
</g>
<g>
	<path fill="#FFFFFF" d="M62.836,7.815h4.678V8.05h-0.234c-0.352,0-0.594,0.035-0.725,0.105c-0.132,0.069-0.225,0.166-0.28,0.289
		s-0.084,0.43-0.084,0.92v4.215c0,0.77,0.062,1.28,0.184,1.53c0.123,0.25,0.324,0.457,0.604,0.622
		c0.281,0.165,0.635,0.248,1.063,0.248c0.49,0,0.908-0.104,1.253-0.314c0.346-0.209,0.604-0.498,0.775-0.866
		c0.171-0.368,0.257-1.009,0.257-1.923v-3.51c0-0.385-0.042-0.66-0.127-0.825c-0.084-0.165-0.191-0.279-0.32-0.343
		c-0.2-0.097-0.483-0.146-0.849-0.146V7.815h3.134V8.05h-0.188c-0.254,0-0.465,0.049-0.635,0.146
		c-0.169,0.097-0.292,0.243-0.367,0.438c-0.058,0.135-0.087,0.379-0.087,0.73v3.269c0,1.011-0.07,1.741-0.211,2.19
		c-0.14,0.449-0.481,0.861-1.025,1.238c-0.543,0.376-1.285,0.565-2.225,0.565c-0.784,0-1.39-0.1-1.817-0.298
		c-0.584-0.271-0.996-0.618-1.236-1.041s-0.36-0.992-0.36-1.708V9.364c0-0.495-0.029-0.803-0.087-0.924
		c-0.059-0.12-0.158-0.217-0.301-0.289S63.22,8.046,62.836,8.05V7.815z"/>
	<path fill="#FFFFFF" d="M75.411,10.488v0.768c0.32-0.33,0.628-0.57,0.922-0.721c0.294-0.15,0.61-0.225,0.948-0.225
		c0.405,0,0.742,0.107,1.01,0.321c0.267,0.213,0.445,0.479,0.534,0.796c0.071,0.241,0.106,0.705,0.106,1.39v2.311
		c0,0.457,0.044,0.742,0.131,0.854c0.087,0.112,0.269,0.183,0.544,0.213v0.229h-3.16v-0.229c0.236-0.03,0.405-0.123,0.508-0.279
		c0.071-0.106,0.107-0.368,0.107-0.787v-2.641c0-0.487-0.021-0.793-0.061-0.92s-0.108-0.225-0.204-0.295
		c-0.096-0.069-0.201-0.104-0.317-0.104c-0.383,0-0.739,0.26-1.068,0.781v3.18c0,0.444,0.043,0.726,0.13,0.844
		c0.087,0.119,0.248,0.192,0.484,0.222v0.229h-3.16v-0.229c0.263-0.025,0.45-0.106,0.562-0.241c0.075-0.093,0.113-0.368,0.113-0.825
		v-3.352c0-0.449-0.043-0.728-0.13-0.838s-0.269-0.182-0.545-0.216v-0.235H75.411z"/>
	<path fill="#FFFFFF" d="M82.907,10.488v4.704c0,0.419,0.052,0.687,0.154,0.803c0.103,0.117,0.303,0.183,0.602,0.2v0.229h-3.375
		v-0.229c0.276-0.008,0.481-0.084,0.615-0.229c0.089-0.097,0.134-0.355,0.134-0.774v-3.466c0-0.419-0.052-0.687-0.154-0.803
		c-0.103-0.117-0.301-0.183-0.595-0.2v-0.235H82.907z M81.973,7.612c0.289,0,0.534,0.096,0.734,0.289
		c0.2,0.192,0.301,0.424,0.301,0.695s-0.102,0.501-0.304,0.692c-0.203,0.19-0.447,0.286-0.731,0.286
		c-0.285,0-0.528-0.095-0.729-0.286s-0.301-0.421-0.301-0.692s0.101-0.502,0.301-0.695C81.444,7.708,81.688,7.612,81.973,7.612z"/>
	<path fill="#FFFFFF" d="M87.09,16.6l-2.104-4.602c-0.254-0.554-0.452-0.906-0.595-1.054c-0.103-0.11-0.254-0.184-0.454-0.222
		v-0.235h3.32v0.235c-0.209,0-0.352,0.036-0.427,0.108c-0.107,0.093-0.161,0.203-0.161,0.33c0,0.157,0.099,0.451,0.294,0.882
		l1.029,2.228l0.822-1.923c0.235-0.55,0.354-0.939,0.354-1.168c0-0.131-0.05-0.238-0.15-0.32c-0.1-0.083-0.277-0.128-0.531-0.137
		v-0.235h2.045v0.235c-0.196,0.025-0.356,0.095-0.481,0.209c-0.124,0.114-0.312,0.451-0.561,1.009L87.404,16.6H87.09z"/>
	<path fill="#FFFFFF" d="M96.404,13.243h-3.428c0.04,0.787,0.261,1.409,0.661,1.866c0.308,0.351,0.678,0.527,1.109,0.527
		c0.268,0,0.51-0.071,0.729-0.213c0.218-0.142,0.452-0.396,0.701-0.765l0.228,0.14c-0.339,0.656-0.713,1.12-1.123,1.394
		c-0.409,0.272-0.884,0.409-1.423,0.409c-0.927,0-1.628-0.338-2.104-1.016c-0.383-0.546-0.574-1.223-0.574-2.031
		c0-0.99,0.281-1.778,0.845-2.364c0.563-0.586,1.224-0.879,1.981-0.879c0.632,0,1.182,0.247,1.646,0.74
		C96.118,11.542,96.368,12.273,96.404,13.243z M94.761,12.817c0-0.681-0.039-1.149-0.117-1.403s-0.199-0.446-0.364-0.578
		c-0.094-0.076-0.218-0.114-0.374-0.114c-0.231,0-0.421,0.108-0.568,0.324c-0.263,0.376-0.394,0.893-0.394,1.549v0.222H94.761z"/>
	<path fill="#FFFFFF" d="M99.779,10.488v1.346c0.414-0.614,0.777-1.021,1.089-1.222c0.312-0.201,0.612-0.301,0.902-0.301
		c0.249,0,0.448,0.073,0.598,0.219c0.149,0.146,0.224,0.352,0.224,0.619c0,0.284-0.072,0.503-0.217,0.66s-0.319,0.235-0.524,0.235
		c-0.236,0-0.441-0.072-0.615-0.216s-0.276-0.224-0.307-0.241c-0.045-0.025-0.097-0.038-0.154-0.038
		c-0.129,0-0.252,0.046-0.367,0.14c-0.183,0.144-0.32,0.349-0.414,0.616c-0.143,0.411-0.214,0.863-0.214,1.358v1.365l0.007,0.355
		c0,0.241,0.016,0.396,0.047,0.463c0.053,0.114,0.132,0.198,0.236,0.25c0.105,0.053,0.282,0.086,0.531,0.099v0.229h-3.374v-0.229
		c0.271-0.021,0.455-0.092,0.552-0.213c0.096-0.12,0.144-0.439,0.144-0.955v-3.282c0-0.338-0.019-0.554-0.054-0.647
		c-0.045-0.119-0.109-0.205-0.193-0.26c-0.085-0.055-0.234-0.093-0.448-0.114v-0.235H99.779z"/>
	<path fill="#FFFFFF" d="M107.209,10.323l0.1,2.025h-0.227c-0.272-0.601-0.554-1.011-0.846-1.231s-0.582-0.33-0.872-0.33
		c-0.183,0-0.338,0.058-0.468,0.175c-0.129,0.116-0.193,0.25-0.193,0.403c0,0.114,0.045,0.224,0.134,0.33
		c0.143,0.173,0.541,0.471,1.196,0.892c0.654,0.421,1.085,0.778,1.292,1.072c0.208,0.294,0.312,0.624,0.312,0.987
		c0,0.33-0.087,0.654-0.261,0.971s-0.419,0.561-0.735,0.73s-0.666,0.254-1.049,0.254c-0.299,0-0.697-0.089-1.196-0.267
		c-0.134-0.046-0.225-0.07-0.273-0.07c-0.147,0-0.27,0.106-0.368,0.317h-0.22l-0.107-2.133h0.228c0.2,0.559,0.476,0.978,0.825,1.257
		s0.68,0.419,0.992,0.419c0.214,0,0.389-0.063,0.524-0.187c0.136-0.125,0.204-0.276,0.204-0.454c0-0.203-0.067-0.379-0.201-0.527
		s-0.432-0.373-0.896-0.673c-0.681-0.449-1.122-0.792-1.322-1.028c-0.294-0.347-0.441-0.73-0.441-1.149
		c0-0.457,0.166-0.871,0.498-1.241c0.332-0.37,0.812-0.555,1.439-0.555c0.339,0,0.666,0.078,0.982,0.235
		c0.12,0.063,0.219,0.095,0.294,0.095c0.08,0,0.145-0.016,0.194-0.047c0.049-0.032,0.127-0.122,0.233-0.27H107.209z"/>
	<path fill="#FFFFFF" d="M111.023,10.488v4.704c0,0.419,0.052,0.687,0.154,0.803c0.103,0.117,0.303,0.183,0.602,0.2v0.229h-3.375
		v-0.229c0.276-0.008,0.481-0.084,0.615-0.229c0.089-0.097,0.134-0.355,0.134-0.774v-3.466c0-0.419-0.052-0.687-0.154-0.803
		c-0.103-0.117-0.301-0.183-0.595-0.2v-0.235H111.023z M110.089,7.612c0.289,0,0.534,0.096,0.734,0.289
		c0.2,0.192,0.301,0.424,0.301,0.695s-0.102,0.501-0.304,0.692c-0.203,0.19-0.447,0.286-0.731,0.286
		c-0.285,0-0.528-0.095-0.729-0.286s-0.301-0.421-0.301-0.692s0.101-0.502,0.301-0.695C109.561,7.708,109.804,7.612,110.089,7.612z"
		/>
	<path fill="#FFFFFF" d="M114.865,8.317v2.171h1.483v0.628h-1.483v3.663c0,0.343,0.018,0.564,0.051,0.664
		c0.033,0.099,0.092,0.18,0.177,0.241c0.085,0.061,0.163,0.092,0.234,0.092c0.289,0,0.563-0.209,0.821-0.628l0.2,0.14
		c-0.36,0.813-0.946,1.219-1.757,1.219c-0.396,0-0.731-0.105-1.006-0.314c-0.273-0.21-0.448-0.443-0.524-0.702
		c-0.045-0.144-0.066-0.533-0.066-1.168v-3.206h-0.815v-0.222c0.562-0.376,1.039-0.772,1.434-1.187
		c0.394-0.415,0.738-0.878,1.032-1.39H114.865z"/>
	<path fill="#FFFFFF" d="M120.392,15.547c-0.762,0.639-1.446,0.958-2.052,0.958c-0.356,0-0.652-0.111-0.889-0.333
		c-0.236-0.222-0.354-0.5-0.354-0.834c0-0.453,0.205-0.86,0.615-1.222c0.41-0.361,1.303-0.843,2.68-1.444v-0.597
		c0-0.449-0.026-0.731-0.077-0.847c-0.052-0.117-0.148-0.218-0.291-0.305c-0.143-0.087-0.303-0.13-0.48-0.13
		c-0.29,0-0.528,0.062-0.715,0.184c-0.116,0.076-0.174,0.165-0.174,0.267c0,0.089,0.062,0.199,0.187,0.33
		c0.17,0.182,0.254,0.357,0.254,0.527c0,0.208-0.081,0.384-0.244,0.53c-0.162,0.146-0.375,0.219-0.638,0.219
		c-0.28,0-0.516-0.081-0.705-0.241s-0.284-0.349-0.284-0.565c0-0.305,0.127-0.596,0.381-0.873c0.254-0.277,0.608-0.49,1.063-0.638
		c0.455-0.148,0.927-0.222,1.417-0.222c0.592,0,1.062,0.12,1.406,0.359c0.345,0.239,0.569,0.498,0.672,0.777
		c0.062,0.178,0.093,0.586,0.093,1.225v2.304c0,0.271,0.012,0.441,0.034,0.511c0.021,0.07,0.056,0.122,0.1,0.156
		c0.045,0.034,0.096,0.051,0.154,0.051c0.115,0,0.233-0.078,0.354-0.235l0.201,0.152c-0.224,0.313-0.454,0.541-0.692,0.683
		c-0.238,0.142-0.509,0.212-0.812,0.212c-0.356,0-0.635-0.08-0.835-0.238C120.559,16.108,120.436,15.869,120.392,15.547z
		 M120.392,15.083v-1.987c-0.539,0.3-0.94,0.622-1.203,0.965c-0.174,0.229-0.261,0.459-0.261,0.692c0,0.195,0.073,0.366,0.221,0.514
		c0.111,0.114,0.268,0.171,0.468,0.171C119.839,15.439,120.098,15.32,120.392,15.083z"/>
	<path fill="#FFFFFF" d="M126.265,8.317v2.171h1.483v0.628h-1.483v3.663c0,0.343,0.018,0.564,0.051,0.664
		c0.033,0.099,0.092,0.18,0.177,0.241c0.085,0.061,0.163,0.092,0.234,0.092c0.289,0,0.563-0.209,0.821-0.628l0.2,0.14
		c-0.36,0.813-0.946,1.219-1.757,1.219c-0.396,0-0.731-0.105-1.006-0.314c-0.273-0.21-0.448-0.443-0.524-0.702
		c-0.045-0.144-0.066-0.533-0.066-1.168v-3.206h-0.815v-0.222c0.562-0.376,1.039-0.772,1.434-1.187
		c0.394-0.415,0.738-0.878,1.032-1.39H126.265z"/>
	<path fill="#FFFFFF" d="M137.837,7.815v6.83c0,0.461,0.014,0.734,0.04,0.819c0.036,0.14,0.104,0.243,0.204,0.311
		c0.101,0.068,0.275,0.11,0.524,0.127v0.209l-2.639,0.489v-0.939c-0.316,0.364-0.599,0.611-0.846,0.743s-0.526,0.197-0.838,0.197
		c-0.798,0-1.428-0.338-1.892-1.016c-0.374-0.55-0.561-1.225-0.561-2.025c0-0.639,0.115-1.211,0.347-1.717
		c0.231-0.505,0.549-0.887,0.952-1.146s0.837-0.387,1.3-0.387c0.299,0,0.563,0.055,0.795,0.165s0.479,0.303,0.742,0.578v-1.79
		c0-0.453-0.021-0.726-0.061-0.819c-0.054-0.123-0.134-0.214-0.24-0.273c-0.107-0.059-0.308-0.089-0.602-0.089V7.815H137.837z
		 M135.967,11.84c-0.33-0.601-0.733-0.901-1.21-0.901c-0.165,0-0.301,0.042-0.407,0.127c-0.165,0.131-0.3,0.362-0.404,0.692
		s-0.157,0.836-0.157,1.517c0,0.749,0.058,1.303,0.174,1.663s0.274,0.62,0.475,0.781c0.103,0.081,0.242,0.121,0.421,0.121
		c0.392,0,0.762-0.292,1.109-0.876V11.84z"/>
	<path fill="#FFFFFF" d="M144.666,13.243h-3.428c0.04,0.787,0.261,1.409,0.661,1.866c0.308,0.351,0.678,0.527,1.109,0.527
		c0.268,0,0.51-0.071,0.729-0.213c0.218-0.142,0.452-0.396,0.701-0.765l0.228,0.14c-0.339,0.656-0.713,1.12-1.123,1.394
		c-0.409,0.272-0.884,0.409-1.423,0.409c-0.927,0-1.628-0.338-2.104-1.016c-0.383-0.546-0.574-1.223-0.574-2.031
		c0-0.99,0.281-1.778,0.845-2.364c0.563-0.586,1.224-0.879,1.981-0.879c0.632,0,1.182,0.247,1.646,0.74
		C144.38,11.542,144.63,12.273,144.666,13.243z M143.022,12.817c0-0.681-0.039-1.149-0.117-1.403s-0.199-0.446-0.364-0.578
		c-0.094-0.076-0.218-0.114-0.374-0.114c-0.231,0-0.421,0.108-0.568,0.324c-0.263,0.376-0.394,0.893-0.394,1.549v0.222H143.022z"/>
	<path fill="#FFFFFF" d="M157.047,13.401l-0.341,3.021h-8.045v-0.235h0.301c0.263,0,0.475-0.044,0.635-0.133
		c0.115-0.059,0.205-0.161,0.268-0.305c0.049-0.102,0.073-0.368,0.073-0.8V9.288c0-0.44-0.024-0.715-0.073-0.825
		c-0.05-0.11-0.148-0.206-0.298-0.289c-0.149-0.082-0.351-0.124-0.604-0.124h-0.301V7.815h4.831V8.05h-0.395
		c-0.263,0-0.475,0.044-0.635,0.133c-0.116,0.059-0.207,0.161-0.273,0.305c-0.05,0.102-0.074,0.368-0.074,0.8v5.484
		c0,0.44,0.027,0.721,0.08,0.841c0.054,0.121,0.158,0.211,0.314,0.27c0.111,0.038,0.381,0.057,0.809,0.057h0.755
		c0.481,0,0.882-0.081,1.203-0.241c0.32-0.161,0.598-0.415,0.831-0.762c0.234-0.347,0.456-0.859,0.665-1.536H157.047z"/>
	<path fill="#FFFFFF" d="M160.44,7.815v7.376c0,0.419,0.052,0.687,0.154,0.803c0.102,0.117,0.303,0.183,0.601,0.2v0.229h-3.374
		v-0.229c0.276-0.008,0.481-0.084,0.615-0.229c0.089-0.097,0.134-0.355,0.134-0.774V9.047c0-0.415-0.052-0.68-0.154-0.797
		c-0.103-0.116-0.301-0.183-0.595-0.2V7.815H160.44z"/>
	<path fill="#FFFFFF" d="M167.09,13.243h-3.428c0.04,0.787,0.261,1.409,0.661,1.866c0.308,0.351,0.678,0.527,1.109,0.527
		c0.268,0,0.51-0.071,0.729-0.213c0.218-0.142,0.452-0.396,0.701-0.765l0.228,0.14c-0.339,0.656-0.713,1.12-1.123,1.394
		c-0.409,0.272-0.884,0.409-1.423,0.409c-0.927,0-1.628-0.338-2.104-1.016c-0.383-0.546-0.574-1.223-0.574-2.031
		c0-0.99,0.281-1.778,0.845-2.364c0.563-0.586,1.224-0.879,1.981-0.879c0.632,0,1.182,0.247,1.646,0.74
		C166.804,11.542,167.054,12.273,167.09,13.243z M165.446,12.817c0-0.681-0.039-1.149-0.117-1.403s-0.199-0.446-0.364-0.578
		c-0.094-0.076-0.218-0.114-0.374-0.114c-0.231,0-0.421,0.108-0.568,0.324c-0.263,0.376-0.394,0.893-0.394,1.549v0.222H165.446z"/>
	<path fill="#FFFFFF" d="M170.31,10.488v4.704c0,0.419,0.052,0.687,0.154,0.803c0.103,0.117,0.303,0.183,0.602,0.2v0.229h-3.375
		v-0.229c0.276-0.008,0.481-0.084,0.615-0.229c0.089-0.097,0.134-0.355,0.134-0.774v-3.466c0-0.419-0.052-0.687-0.154-0.803
		c-0.103-0.117-0.301-0.183-0.595-0.2v-0.235H170.31z M169.375,7.612c0.289,0,0.534,0.096,0.734,0.289
		c0.2,0.192,0.301,0.424,0.301,0.695s-0.102,0.501-0.304,0.692c-0.203,0.19-0.447,0.286-0.731,0.286
		c-0.285,0-0.528-0.095-0.729-0.286s-0.301-0.421-0.301-0.692s0.101-0.502,0.301-0.695C168.847,7.708,169.09,7.612,169.375,7.612z"
		/>
	<path fill="#FFFFFF" d="M177.746,7.815v6.83c0,0.461,0.014,0.734,0.04,0.819c0.036,0.14,0.104,0.243,0.204,0.311
		c0.101,0.068,0.275,0.11,0.524,0.127v0.209l-2.639,0.489v-0.939c-0.316,0.364-0.599,0.611-0.846,0.743s-0.526,0.197-0.838,0.197
		c-0.798,0-1.428-0.338-1.892-1.016c-0.374-0.55-0.561-1.225-0.561-2.025c0-0.639,0.115-1.211,0.347-1.717
		c0.231-0.505,0.549-0.887,0.952-1.146s0.837-0.387,1.3-0.387c0.299,0,0.563,0.055,0.795,0.165s0.479,0.303,0.742,0.578v-1.79
		c0-0.453-0.021-0.726-0.061-0.819c-0.054-0.123-0.134-0.214-0.24-0.273c-0.107-0.059-0.308-0.089-0.602-0.089V7.815H177.746z
		 M175.876,11.84c-0.33-0.601-0.733-0.901-1.21-0.901c-0.165,0-0.301,0.042-0.407,0.127c-0.165,0.131-0.3,0.362-0.404,0.692
		s-0.157,0.836-0.157,1.517c0,0.749,0.058,1.303,0.174,1.663s0.274,0.62,0.475,0.781c0.103,0.081,0.242,0.121,0.421,0.121
		c0.392,0,0.762-0.292,1.109-0.876V11.84z"/>
	<path fill="#FFFFFF" d="M182.731,15.547c-0.762,0.639-1.446,0.958-2.052,0.958c-0.356,0-0.652-0.111-0.889-0.333
		c-0.236-0.222-0.354-0.5-0.354-0.834c0-0.453,0.205-0.86,0.615-1.222c0.41-0.361,1.303-0.843,2.68-1.444v-0.597
		c0-0.449-0.026-0.731-0.077-0.847c-0.052-0.117-0.148-0.218-0.291-0.305c-0.143-0.087-0.303-0.13-0.48-0.13
		c-0.29,0-0.528,0.062-0.715,0.184c-0.116,0.076-0.174,0.165-0.174,0.267c0,0.089,0.062,0.199,0.187,0.33
		c0.17,0.182,0.254,0.357,0.254,0.527c0,0.208-0.081,0.384-0.244,0.53c-0.162,0.146-0.375,0.219-0.638,0.219
		c-0.28,0-0.516-0.081-0.705-0.241s-0.284-0.349-0.284-0.565c0-0.305,0.127-0.596,0.381-0.873c0.254-0.277,0.608-0.49,1.063-0.638
		c0.455-0.148,0.927-0.222,1.417-0.222c0.592,0,1.062,0.12,1.406,0.359c0.345,0.239,0.569,0.498,0.672,0.777
		c0.062,0.178,0.093,0.586,0.093,1.225v2.304c0,0.271,0.012,0.441,0.034,0.511c0.021,0.07,0.056,0.122,0.1,0.156
		c0.045,0.034,0.096,0.051,0.154,0.051c0.115,0,0.233-0.078,0.354-0.235l0.201,0.152c-0.224,0.313-0.454,0.541-0.692,0.683
		c-0.238,0.142-0.509,0.212-0.812,0.212c-0.356,0-0.635-0.08-0.835-0.238C182.898,16.108,182.775,15.869,182.731,15.547z
		 M182.731,15.083v-1.987c-0.539,0.3-0.94,0.622-1.203,0.965c-0.174,0.229-0.261,0.459-0.261,0.692c0,0.195,0.073,0.366,0.221,0.514
		c0.111,0.114,0.268,0.171,0.468,0.171C182.179,15.439,182.438,15.32,182.731,15.083z"/>
</g>
<g>
	<path fill="#FFFFFF" d="M65.375,21.711v3.402h1.991c0.517,0,0.862-0.074,1.036-0.222c0.231-0.195,0.36-0.538,0.388-1.029h0.247
		v2.996H68.79c-0.063-0.418-0.125-0.688-0.188-0.806c-0.08-0.148-0.212-0.265-0.395-0.349c-0.183-0.085-0.463-0.127-0.842-0.127
		h-1.991v2.837c0,0.381,0.019,0.612,0.054,0.695c0.036,0.082,0.098,0.147,0.188,0.196c0.089,0.049,0.258,0.073,0.508,0.073h1.536
		c0.513,0,0.885-0.034,1.116-0.102s0.454-0.201,0.668-0.399c0.276-0.263,0.559-0.658,0.849-1.188h0.268l-0.782,2.158h-6.982v-0.234
		h0.321c0.214,0,0.416-0.049,0.607-0.146c0.143-0.067,0.24-0.169,0.291-0.305s0.077-0.412,0.077-0.832v-5.592
		c0-0.546-0.059-0.883-0.174-1.01c-0.16-0.169-0.428-0.254-0.802-0.254h-0.321v-0.234h6.982l0.101,1.885h-0.261
		c-0.094-0.452-0.197-0.764-0.311-0.933s-0.282-0.298-0.505-0.388c-0.178-0.063-0.492-0.095-0.941-0.095H65.375z"/>
	<path fill="#FFFFFF" d="M75.257,23.862v1.98h-0.22c-0.17-0.621-0.387-1.045-0.652-1.27c-0.265-0.224-0.603-0.336-1.012-0.336
		c-0.312,0-0.563,0.078-0.755,0.234c-0.191,0.157-0.287,0.33-0.287,0.521c0,0.236,0.07,0.439,0.213,0.609
		c0.139,0.173,0.419,0.357,0.843,0.552l0.976,0.45c0.903,0.42,1.355,0.972,1.355,1.657c0,0.529-0.21,0.955-0.631,1.279
		c-0.421,0.323-0.893,0.485-1.413,0.485c-0.374,0-0.802-0.063-1.283-0.19c-0.146-0.042-0.268-0.063-0.36-0.063
		c-0.103,0-0.183,0.055-0.241,0.165h-0.22v-2.075h0.22c0.125,0.592,0.363,1.038,0.715,1.339c0.353,0.301,0.746,0.45,1.183,0.45
		c0.308,0,0.559-0.085,0.752-0.257c0.194-0.171,0.291-0.378,0.291-0.618c0-0.293-0.108-0.538-0.324-0.736
		c-0.216-0.199-0.647-0.451-1.293-0.756s-1.069-0.58-1.27-0.825c-0.2-0.241-0.301-0.546-0.301-0.914c0-0.479,0.173-0.878,0.518-1.2
		c0.346-0.321,0.792-0.482,1.34-0.482c0.241,0,0.532,0.049,0.876,0.146c0.227,0.063,0.378,0.096,0.454,0.096
		c0.071,0,0.127-0.016,0.167-0.045s0.087-0.096,0.141-0.197H75.257z"/>
	<path fill="#FFFFFF" d="M81.825,27.64c-0.165,0.766-0.488,1.355-0.969,1.768c-0.481,0.413-1.014,0.619-1.597,0.619
		c-0.695,0-1.301-0.277-1.817-0.832c-0.518-0.554-0.775-1.303-0.775-2.246c0-0.914,0.286-1.657,0.858-2.229s1.26-0.857,2.062-0.857
		c0.602,0,1.096,0.151,1.483,0.454s0.581,0.617,0.581,0.942c0,0.161-0.055,0.291-0.164,0.391c-0.108,0.1-0.262,0.149-0.457,0.149
		c-0.263,0-0.461-0.08-0.595-0.241c-0.076-0.089-0.126-0.258-0.15-0.508s-0.115-0.44-0.271-0.571
		c-0.156-0.127-0.372-0.19-0.648-0.19c-0.445,0-0.804,0.156-1.075,0.47c-0.361,0.415-0.542,0.963-0.542,1.644
		c0,0.694,0.18,1.307,0.538,1.838s0.843,0.797,1.453,0.797c0.437,0,0.829-0.142,1.176-0.426c0.245-0.194,0.483-0.548,0.716-1.06
		L81.825,27.64z"/>
	<path fill="#FFFFFF" d="M85.694,23.862c0.927,0,1.671,0.335,2.231,1.004c0.477,0.57,0.715,1.227,0.715,1.967
		c0,0.521-0.131,1.048-0.394,1.581s-0.625,0.936-1.086,1.206s-0.975,0.406-1.54,0.406c-0.922,0-1.655-0.35-2.198-1.047
		c-0.459-0.589-0.688-1.249-0.688-1.98c0-0.533,0.14-1.063,0.418-1.591c0.278-0.526,0.645-0.916,1.099-1.168
		S85.187,23.862,85.694,23.862z M85.487,24.275c-0.236,0-0.474,0.066-0.712,0.2c-0.238,0.133-0.431,0.367-0.578,0.701
		c-0.146,0.334-0.22,0.764-0.22,1.289c0,0.846,0.177,1.576,0.531,2.189c0.354,0.613,0.82,0.92,1.399,0.92
		c0.432,0,0.788-0.169,1.069-0.508c0.28-0.338,0.421-0.92,0.421-1.745c0-1.032-0.234-1.845-0.702-2.438
		C86.38,24.478,85.978,24.275,85.487,24.275z"/>
	<path fill="#FFFFFF" d="M91.647,20.822v7.712c0,0.364,0.028,0.605,0.084,0.725c0.056,0.118,0.141,0.208,0.257,0.27
		s0.332,0.092,0.648,0.092v0.229h-3V29.62c0.28,0,0.472-0.027,0.574-0.082c0.103-0.056,0.183-0.146,0.24-0.273
		c0.059-0.127,0.087-0.37,0.087-0.73v-5.281c0-0.655-0.016-1.059-0.047-1.209s-0.081-0.253-0.149-0.308
		c-0.069-0.055-0.157-0.083-0.265-0.083c-0.115,0-0.263,0.034-0.44,0.102l-0.114-0.222l1.824-0.711H91.647z"/>
	<path fill="#FFFFFF" d="M96.813,29.011c-0.628,0.461-1.022,0.728-1.183,0.8c-0.24,0.105-0.497,0.159-0.769,0.159
		c-0.423,0-0.771-0.138-1.046-0.413c-0.273-0.275-0.411-0.637-0.411-1.085c0-0.284,0.067-0.529,0.201-0.736
		c0.183-0.288,0.5-0.559,0.952-0.813s1.203-0.563,2.255-0.928v-0.229c0-0.579-0.097-0.977-0.291-1.193
		c-0.193-0.215-0.476-0.323-0.845-0.323c-0.281,0-0.504,0.072-0.668,0.216c-0.17,0.144-0.254,0.309-0.254,0.495l0.013,0.368
		c0,0.194-0.052,0.345-0.157,0.451c-0.104,0.105-0.241,0.158-0.41,0.158c-0.165,0-0.3-0.055-0.404-0.165
		c-0.105-0.11-0.157-0.261-0.157-0.45c0-0.364,0.196-0.699,0.588-1.004s0.942-0.457,1.65-0.457c0.543,0,0.989,0.087,1.336,0.261
		c0.263,0.131,0.457,0.337,0.582,0.616c0.08,0.182,0.12,0.554,0.12,1.117v1.974c0,0.555,0.011,0.894,0.033,1.019
		s0.059,0.209,0.11,0.251c0.051,0.042,0.11,0.063,0.177,0.063c0.071,0,0.134-0.015,0.188-0.045c0.094-0.055,0.273-0.209,0.541-0.463
		v0.355c-0.499,0.635-0.976,0.952-1.43,0.952c-0.219,0-0.393-0.072-0.521-0.216S96.816,29.357,96.813,29.011z M96.813,28.599v-2.216
		c-0.673,0.254-1.107,0.434-1.303,0.54c-0.353,0.186-0.604,0.381-0.755,0.584c-0.152,0.203-0.228,0.425-0.228,0.666
		c0,0.305,0.096,0.558,0.287,0.759s0.412,0.302,0.661,0.302C95.814,29.233,96.26,29.021,96.813,28.599z"/>
	<path fill="#FFFFFF" d="M110.082,21.241l0.1,2.019h-0.254c-0.049-0.355-0.115-0.609-0.2-0.762
		c-0.138-0.245-0.321-0.427-0.551-0.543s-0.531-0.175-0.905-0.175h-1.276v6.576c0,0.529,0.06,0.859,0.18,0.99
		c0.17,0.178,0.431,0.268,0.782,0.268h0.314v0.234h-3.843v-0.234h0.321c0.383,0,0.654-0.11,0.815-0.33
		c0.098-0.136,0.146-0.445,0.146-0.928V21.78h-1.089c-0.424,0-0.724,0.03-0.902,0.09c-0.231,0.08-0.43,0.234-0.595,0.463
		s-0.263,0.537-0.294,0.927h-0.254l0.107-2.019H110.082z"/>
	<path fill="#FFFFFF" d="M111.979,26.224c-0.005,0.863,0.216,1.541,0.661,2.031c0.445,0.491,0.969,0.736,1.57,0.736
		c0.4,0,0.749-0.104,1.046-0.313c0.296-0.21,0.544-0.568,0.744-1.076l0.208,0.127c-0.094,0.58-0.366,1.107-0.815,1.584
		c-0.45,0.476-1.014,0.714-1.69,0.714c-0.735,0-1.364-0.271-1.888-0.815s-0.785-1.275-0.785-2.193c0-0.994,0.269-1.77,0.805-2.326
		c0.537-0.557,1.211-0.835,2.021-0.835c0.687,0,1.25,0.215,1.69,0.645c0.441,0.43,0.662,1.004,0.662,1.723H111.979z M111.979,25.856
		h2.833c-0.022-0.373-0.069-0.635-0.141-0.787c-0.111-0.237-0.277-0.424-0.498-0.559c-0.221-0.136-0.451-0.203-0.691-0.203
		c-0.37,0-0.7,0.136-0.992,0.409C112.198,24.989,112.028,25.369,111.979,25.856z M112.427,21.025h1.49l0.708,2.19h-0.234
		L112.427,21.025z"/>
	<path fill="#FFFFFF" d="M122.223,27.64c-0.165,0.766-0.488,1.355-0.969,1.768c-0.481,0.413-1.014,0.619-1.597,0.619
		c-0.695,0-1.301-0.277-1.817-0.832c-0.518-0.554-0.775-1.303-0.775-2.246c0-0.914,0.286-1.657,0.858-2.229s1.26-0.857,2.062-0.857
		c0.602,0,1.096,0.151,1.483,0.454s0.581,0.617,0.581,0.942c0,0.161-0.055,0.291-0.164,0.391c-0.108,0.1-0.262,0.149-0.457,0.149
		c-0.263,0-0.461-0.08-0.595-0.241c-0.076-0.089-0.126-0.258-0.15-0.508s-0.115-0.44-0.271-0.571
		c-0.156-0.127-0.372-0.19-0.648-0.19c-0.445,0-0.804,0.156-1.075,0.47c-0.361,0.415-0.542,0.963-0.542,1.644
		c0,0.694,0.18,1.307,0.538,1.838s0.843,0.797,1.453,0.797c0.437,0,0.829-0.142,1.176-0.426c0.245-0.194,0.483-0.548,0.716-1.06
		L122.223,27.64z"/>
	<path fill="#FFFFFF" d="M124.882,25.095c0.717-0.821,1.4-1.232,2.051-1.232c0.334,0,0.621,0.08,0.862,0.238
		c0.24,0.159,0.432,0.42,0.574,0.784c0.098,0.254,0.147,0.644,0.147,1.168v2.481c0,0.369,0.031,0.618,0.094,0.75
		c0.049,0.105,0.128,0.188,0.236,0.247c0.109,0.06,0.312,0.089,0.605,0.089v0.229h-3.027V29.62h0.127
		c0.285,0,0.484-0.041,0.599-0.124c0.113-0.082,0.192-0.204,0.236-0.364c0.019-0.064,0.027-0.263,0.027-0.598v-2.38
		c0-0.529-0.072-0.913-0.218-1.152c-0.145-0.239-0.389-0.358-0.731-0.358c-0.53,0-1.058,0.275-1.583,0.825v3.065
		c0,0.395,0.024,0.638,0.073,0.73c0.063,0.123,0.148,0.213,0.257,0.27c0.109,0.058,0.331,0.086,0.665,0.086v0.229h-3.026V29.62
		h0.134c0.312,0,0.521-0.075,0.631-0.226s0.164-0.437,0.164-0.86v-2.158c0-0.697-0.017-1.123-0.051-1.275
		c-0.033-0.152-0.084-0.256-0.153-0.311c-0.069-0.056-0.161-0.083-0.277-0.083c-0.125,0-0.273,0.032-0.447,0.095l-0.101-0.229
		l1.844-0.711h0.288V25.095z"/>
	<path fill="#FFFFFF" d="M132.051,23.862v4.672c0,0.364,0.027,0.606,0.083,0.728c0.056,0.12,0.139,0.21,0.248,0.27
		c0.108,0.06,0.308,0.089,0.598,0.089v0.229h-2.974V29.62c0.299,0,0.499-0.027,0.602-0.082c0.103-0.056,0.184-0.146,0.244-0.273
		c0.06-0.127,0.09-0.37,0.09-0.73v-2.24c0-0.631-0.02-1.039-0.06-1.225c-0.031-0.136-0.081-0.23-0.147-0.283
		s-0.158-0.079-0.273-0.079c-0.125,0-0.276,0.032-0.455,0.095l-0.093-0.229l1.844-0.711H132.051z M131.496,20.822
		c0.188,0,0.347,0.063,0.478,0.188c0.132,0.125,0.197,0.276,0.197,0.454s-0.065,0.33-0.197,0.457
		c-0.131,0.127-0.29,0.189-0.478,0.189s-0.348-0.063-0.481-0.189c-0.133-0.127-0.2-0.279-0.2-0.457s0.065-0.329,0.197-0.454
		S131.305,20.822,131.496,20.822z"/>
	<path fill="#FFFFFF" d="M138.939,27.64c-0.165,0.766-0.488,1.355-0.969,1.768c-0.481,0.413-1.014,0.619-1.597,0.619
		c-0.695,0-1.301-0.277-1.817-0.832c-0.518-0.554-0.775-1.303-0.775-2.246c0-0.914,0.286-1.657,0.858-2.229s1.26-0.857,2.062-0.857
		c0.602,0,1.096,0.151,1.483,0.454s0.581,0.617,0.581,0.942c0,0.161-0.055,0.291-0.164,0.391c-0.108,0.1-0.262,0.149-0.457,0.149
		c-0.263,0-0.461-0.08-0.595-0.241c-0.076-0.089-0.126-0.258-0.15-0.508s-0.115-0.44-0.271-0.571
		c-0.156-0.127-0.372-0.19-0.648-0.19c-0.445,0-0.804,0.156-1.075,0.47c-0.361,0.415-0.542,0.963-0.542,1.644
		c0,0.694,0.18,1.307,0.538,1.838s0.843,0.797,1.453,0.797c0.437,0,0.829-0.142,1.176-0.426c0.245-0.194,0.483-0.548,0.716-1.06
		L138.939,27.64z"/>
	<path fill="#FFFFFF" d="M143.283,29.011c-0.628,0.461-1.022,0.728-1.183,0.8c-0.24,0.105-0.497,0.159-0.769,0.159
		c-0.423,0-0.771-0.138-1.046-0.413c-0.273-0.275-0.411-0.637-0.411-1.085c0-0.284,0.067-0.529,0.201-0.736
		c0.183-0.288,0.5-0.559,0.952-0.813s1.203-0.563,2.255-0.928v-0.229c0-0.579-0.097-0.977-0.291-1.193
		c-0.193-0.215-0.476-0.323-0.845-0.323c-0.281,0-0.504,0.072-0.668,0.216c-0.17,0.144-0.254,0.309-0.254,0.495l0.013,0.368
		c0,0.194-0.052,0.345-0.157,0.451c-0.104,0.105-0.241,0.158-0.41,0.158c-0.165,0-0.3-0.055-0.404-0.165
		c-0.105-0.11-0.157-0.261-0.157-0.45c0-0.364,0.196-0.699,0.588-1.004s0.942-0.457,1.65-0.457c0.543,0,0.989,0.087,1.336,0.261
		c0.263,0.131,0.457,0.337,0.582,0.616c0.08,0.182,0.12,0.554,0.12,1.117v1.974c0,0.555,0.011,0.894,0.033,1.019
		s0.059,0.209,0.11,0.251c0.051,0.042,0.11,0.063,0.177,0.063c0.071,0,0.134-0.015,0.188-0.045c0.094-0.055,0.273-0.209,0.541-0.463
		v0.355c-0.499,0.635-0.976,0.952-1.43,0.952c-0.219,0-0.393-0.072-0.521-0.216S143.287,29.357,143.283,29.011z M143.283,28.599
		v-2.216c-0.673,0.254-1.107,0.434-1.303,0.54c-0.353,0.186-0.604,0.381-0.755,0.584c-0.152,0.203-0.228,0.425-0.228,0.666
		c0,0.305,0.096,0.558,0.287,0.759s0.412,0.302,0.661,0.302C142.285,29.233,142.73,29.021,143.283,28.599z"/>
	<path fill="#FFFFFF" d="M155.156,21.044v2.978h-0.248c-0.08-0.571-0.224-1.026-0.431-1.364c-0.207-0.339-0.502-0.607-0.885-0.807
		c-0.384-0.199-0.78-0.299-1.189-0.299c-0.464,0-0.847,0.135-1.149,0.403s-0.454,0.575-0.454,0.917c0,0.263,0.096,0.502,0.287,0.718
		c0.276,0.317,0.933,0.74,1.971,1.27c0.847,0.432,1.425,0.763,1.734,0.993s0.548,0.503,0.715,0.816
		c0.167,0.313,0.25,0.641,0.25,0.983c0,0.651-0.266,1.214-0.798,1.686s-1.218,0.708-2.055,0.708c-0.263,0-0.51-0.02-0.742-0.058
		c-0.138-0.021-0.424-0.099-0.858-0.231c-0.435-0.134-0.709-0.2-0.825-0.2c-0.111,0-0.199,0.032-0.264,0.095
		c-0.064,0.064-0.112,0.195-0.144,0.395h-0.247v-2.952h0.247c0.115,0.618,0.271,1.08,0.468,1.387
		c0.195,0.307,0.495,0.562,0.898,0.765s0.846,0.305,1.326,0.305c0.557,0,0.997-0.139,1.319-0.418
		c0.323-0.279,0.485-0.609,0.485-0.99c0-0.212-0.062-0.426-0.185-0.642c-0.122-0.216-0.313-0.417-0.571-0.603
		c-0.174-0.127-0.647-0.397-1.423-0.81c-0.775-0.413-1.326-0.742-1.653-0.987c-0.328-0.245-0.576-0.517-0.745-0.813
		c-0.17-0.296-0.254-0.622-0.254-0.978c0-0.618,0.249-1.15,0.748-1.597s1.134-0.67,1.904-0.67c0.481,0,0.991,0.112,1.53,0.337
		c0.249,0.105,0.425,0.159,0.527,0.159c0.116,0,0.211-0.033,0.284-0.099s0.133-0.198,0.177-0.397H155.156z"/>
	<path fill="#FFFFFF" d="M162.285,24.034v3.523c0,0.672,0.017,1.084,0.05,1.234c0.034,0.15,0.087,0.255,0.161,0.314
		c0.073,0.059,0.159,0.088,0.257,0.088c0.138,0,0.294-0.035,0.468-0.107l0.094,0.223l-1.831,0.717h-0.301v-1.231
		c-0.525,0.542-0.927,0.882-1.202,1.022c-0.276,0.139-0.568,0.209-0.876,0.209c-0.343,0-0.641-0.094-0.892-0.282
		c-0.252-0.188-0.427-0.431-0.524-0.728c-0.099-0.296-0.147-0.715-0.147-1.256v-2.597c0-0.275-0.031-0.466-0.094-0.571
		s-0.154-0.188-0.277-0.244c-0.122-0.058-0.344-0.084-0.664-0.08v-0.234h2.145v3.891c0,0.542,0.099,0.897,0.297,1.066
		c0.198,0.17,0.438,0.254,0.719,0.254c0.191,0,0.408-0.057,0.651-0.171s0.531-0.332,0.865-0.653v-3.295
		c0-0.33-0.063-0.554-0.19-0.67s-0.391-0.179-0.792-0.188v-0.234H162.285z"/>
	<path fill="#FFFFFF" d="M163.32,24.612l1.885-0.725h0.254v1.359c0.316-0.513,0.634-0.871,0.952-1.076s0.653-0.309,1.005-0.309
		c0.615,0,1.127,0.229,1.537,0.686c0.503,0.559,0.755,1.287,0.755,2.184c0,1.004-0.303,1.833-0.908,2.488
		c-0.499,0.538-1.127,0.807-1.885,0.807c-0.329,0-0.614-0.045-0.854-0.133c-0.179-0.064-0.379-0.191-0.602-0.381v1.771
		c0,0.397,0.025,0.65,0.076,0.759c0.052,0.107,0.141,0.193,0.268,0.257s0.357,0.095,0.691,0.095v0.235h-3.207v-0.235h0.167
		c0.245,0.005,0.454-0.04,0.628-0.133c0.085-0.047,0.15-0.122,0.197-0.226s0.07-0.367,0.07-0.79v-5.497
		c0-0.377-0.018-0.616-0.054-0.718c-0.035-0.102-0.092-0.178-0.17-0.229s-0.184-0.076-0.317-0.076c-0.107,0-0.243,0.03-0.408,0.09
		L163.32,24.612z M165.459,25.621v2.171c0,0.47,0.02,0.778,0.06,0.927c0.063,0.245,0.215,0.461,0.458,0.647s0.549,0.279,0.919,0.279
		c0.445,0,0.806-0.165,1.082-0.495c0.361-0.432,0.541-1.039,0.541-1.821c0-0.889-0.204-1.572-0.614-2.051
		c-0.285-0.33-0.624-0.495-1.016-0.495c-0.214,0-0.426,0.051-0.635,0.152C166.094,25.012,165.828,25.24,165.459,25.621z"/>
	<path fill="#FFFFFF" d="M171.633,26.224c-0.005,0.863,0.216,1.541,0.661,2.031c0.445,0.491,0.969,0.736,1.57,0.736
		c0.4,0,0.749-0.104,1.046-0.313c0.296-0.21,0.544-0.568,0.744-1.076l0.208,0.127c-0.094,0.58-0.366,1.107-0.815,1.584
		c-0.45,0.476-1.014,0.714-1.69,0.714c-0.735,0-1.364-0.271-1.888-0.815s-0.785-1.275-0.785-2.193c0-0.994,0.269-1.77,0.805-2.326
		c0.537-0.557,1.211-0.835,2.021-0.835c0.687,0,1.25,0.215,1.69,0.645c0.441,0.43,0.662,1.004,0.662,1.723H171.633z M171.633,25.856
		h2.833c-0.022-0.373-0.069-0.635-0.141-0.787c-0.111-0.237-0.277-0.424-0.498-0.559c-0.221-0.136-0.451-0.203-0.691-0.203
		c-0.37,0-0.7,0.136-0.992,0.409C171.852,24.989,171.682,25.369,171.633,25.856z"/>
	<path fill="#FFFFFF" d="M178.469,23.862v1.309c0.512-0.872,1.037-1.309,1.576-1.309c0.245,0,0.448,0.071,0.608,0.213
		s0.24,0.306,0.24,0.492c0,0.165-0.058,0.305-0.174,0.419c-0.115,0.114-0.254,0.171-0.414,0.171c-0.156,0-0.331-0.072-0.524-0.219
		c-0.193-0.146-0.338-0.219-0.431-0.219c-0.08,0-0.167,0.042-0.261,0.127c-0.2,0.174-0.408,0.459-0.621,0.857v2.786
		c0,0.321,0.042,0.565,0.127,0.729c0.058,0.115,0.16,0.21,0.307,0.286c0.147,0.076,0.358,0.114,0.635,0.114v0.229h-3.134V29.62
		c0.313,0,0.544-0.047,0.695-0.14c0.111-0.067,0.189-0.176,0.233-0.323c0.022-0.072,0.034-0.277,0.034-0.616v-2.253
		c0-0.678-0.015-1.081-0.044-1.21s-0.082-0.223-0.16-0.282s-0.175-0.089-0.291-0.089c-0.138,0-0.294,0.032-0.468,0.095l-0.066-0.229
		l1.851-0.711H178.469z"/>
	<path fill="#FFFFFF" d="M183.346,23.862v4.672c0,0.364,0.027,0.606,0.083,0.728c0.056,0.12,0.139,0.21,0.248,0.27
		c0.108,0.06,0.308,0.089,0.598,0.089v0.229h-2.974V29.62c0.299,0,0.499-0.027,0.602-0.082c0.103-0.056,0.184-0.146,0.244-0.273
		c0.06-0.127,0.09-0.37,0.09-0.73v-2.24c0-0.631-0.02-1.039-0.06-1.225c-0.031-0.136-0.081-0.23-0.147-0.283
		s-0.158-0.079-0.273-0.079c-0.125,0-0.276,0.032-0.455,0.095l-0.093-0.229l1.844-0.711H183.346z M182.791,20.822
		c0.188,0,0.347,0.063,0.478,0.188c0.132,0.125,0.197,0.276,0.197,0.454s-0.065,0.33-0.197,0.457
		c-0.131,0.127-0.29,0.189-0.478,0.189s-0.348-0.063-0.481-0.189c-0.133-0.127-0.2-0.279-0.2-0.457s0.065-0.329,0.197-0.454
		S182.6,20.822,182.791,20.822z"/>
	<path fill="#FFFFFF" d="M188.029,23.862c0.927,0,1.671,0.335,2.231,1.004c0.477,0.57,0.715,1.227,0.715,1.967
		c0,0.521-0.131,1.048-0.394,1.581s-0.625,0.936-1.086,1.206s-0.975,0.406-1.54,0.406c-0.922,0-1.655-0.35-2.198-1.047
		c-0.459-0.589-0.688-1.249-0.688-1.98c0-0.533,0.14-1.063,0.418-1.591c0.278-0.526,0.645-0.916,1.099-1.168
		S187.521,23.862,188.029,23.862z M187.822,24.275c-0.236,0-0.474,0.066-0.712,0.2c-0.238,0.133-0.431,0.367-0.578,0.701
		c-0.146,0.334-0.22,0.764-0.22,1.289c0,0.846,0.177,1.576,0.531,2.189c0.354,0.613,0.82,0.92,1.399,0.92
		c0.432,0,0.788-0.169,1.069-0.508c0.28-0.338,0.421-0.92,0.421-1.745c0-1.032-0.234-1.845-0.702-2.438
		C188.715,24.478,188.313,24.275,187.822,24.275z"/>
	<path fill="#FFFFFF" d="M193.669,23.862v1.309c0.512-0.872,1.037-1.309,1.576-1.309c0.245,0,0.448,0.071,0.608,0.213
		s0.24,0.306,0.24,0.492c0,0.165-0.058,0.305-0.174,0.419c-0.115,0.114-0.254,0.171-0.414,0.171c-0.156,0-0.331-0.072-0.524-0.219
		c-0.193-0.146-0.338-0.219-0.431-0.219c-0.08,0-0.167,0.042-0.261,0.127c-0.2,0.174-0.408,0.459-0.621,0.857v2.786
		c0,0.321,0.042,0.565,0.127,0.729c0.058,0.115,0.16,0.21,0.307,0.286c0.147,0.076,0.358,0.114,0.635,0.114v0.229h-3.134V29.62
		c0.313,0,0.544-0.047,0.695-0.14c0.111-0.067,0.189-0.176,0.233-0.323c0.022-0.072,0.034-0.277,0.034-0.616v-2.253
		c0-0.678-0.015-1.081-0.044-1.21s-0.082-0.223-0.16-0.282s-0.175-0.089-0.291-0.089c-0.138,0-0.294,0.032-0.468,0.095l-0.066-0.229
		l1.851-0.711H193.669z"/>
	<path fill="#FFFFFF" d="M67.267,40.018c-0.299,0.297-0.591,0.51-0.876,0.639s-0.592,0.193-0.922,0.193
		c-0.668,0-1.252-0.266-1.75-0.797c-0.499-0.531-0.749-1.213-0.749-2.047s0.276-1.597,0.829-2.288
		c0.552-0.692,1.263-1.038,2.131-1.038c0.539,0,0.984,0.163,1.337,0.488v-1.072c0-0.664-0.017-1.072-0.051-1.225
		c-0.033-0.152-0.086-0.257-0.156-0.312c-0.071-0.055-0.161-0.083-0.268-0.083c-0.116,0-0.27,0.034-0.461,0.102l-0.087-0.222
		l1.824-0.711h0.301v6.722c0,0.682,0.017,1.098,0.05,1.248s0.087,0.255,0.16,0.314c0.073,0.059,0.159,0.088,0.257,0.088
		c0.121,0,0.281-0.035,0.481-0.107l0.073,0.223l-1.817,0.717h-0.307V40.018z M67.267,39.575v-2.996
		c-0.027-0.288-0.107-0.551-0.241-0.787c-0.134-0.237-0.311-0.416-0.531-0.537c-0.22-0.12-0.436-0.181-0.645-0.181
		c-0.392,0-0.741,0.167-1.049,0.501c-0.405,0.44-0.608,1.084-0.608,1.93c0,0.855,0.196,1.51,0.588,1.965
		c0.393,0.455,0.829,0.683,1.31,0.683C66.495,40.152,66.888,39.96,67.267,39.575z"/>
	<path fill="#FFFFFF" d="M70.947,35.157v-0.299c0.459-0.258,0.771-0.499,0.936-0.724c0.116-0.161,0.174-0.354,0.174-0.577
		c0-0.132-0.024-0.229-0.073-0.293c-0.054-0.063-0.111-0.095-0.174-0.095c-0.049,0-0.113,0.015-0.193,0.044
		c-0.116,0.039-0.212,0.058-0.288,0.058c-0.178,0-0.336-0.063-0.474-0.19c-0.139-0.127-0.208-0.285-0.208-0.477
		c0-0.211,0.069-0.376,0.208-0.494c0.187-0.161,0.409-0.242,0.668-0.242c0.298,0,0.566,0.12,0.805,0.359s0.357,0.536,0.357,0.892
		c0,0.499-0.198,0.954-0.595,1.364C71.827,34.755,71.446,34.979,70.947,35.157z"/>
	<path fill="#FFFFFF" d="M76.773,32.535v3.402h1.991c0.517,0,0.862-0.074,1.036-0.222c0.231-0.195,0.36-0.538,0.388-1.029h0.247
		v2.996h-0.247c-0.063-0.418-0.125-0.688-0.188-0.806c-0.08-0.148-0.212-0.265-0.395-0.349c-0.183-0.085-0.463-0.127-0.842-0.127
		h-1.991v2.837c0,0.381,0.019,0.612,0.054,0.695c0.036,0.082,0.098,0.147,0.188,0.196c0.089,0.049,0.258,0.073,0.508,0.073h1.536
		c0.513,0,0.885-0.034,1.116-0.102s0.454-0.201,0.668-0.399c0.276-0.263,0.559-0.658,0.849-1.188h0.268l-0.782,2.158h-6.982v-0.234
		h0.321c0.214,0,0.416-0.049,0.607-0.146c0.143-0.067,0.24-0.169,0.291-0.305s0.077-0.412,0.077-0.832v-5.592
		c0-0.546-0.059-0.883-0.174-1.01c-0.16-0.169-0.428-0.254-0.802-0.254h-0.321v-0.234h6.982l0.101,1.885h-0.261
		c-0.094-0.452-0.197-0.764-0.311-0.933s-0.282-0.298-0.505-0.388c-0.178-0.063-0.492-0.095-0.941-0.095H76.773z"/>
	<path fill="#FFFFFF" d="M84.485,35.919c0.717-0.821,1.4-1.232,2.051-1.232c0.334,0,0.621,0.08,0.862,0.238
		c0.24,0.159,0.432,0.42,0.574,0.784c0.098,0.254,0.147,0.644,0.147,1.168v2.481c0,0.369,0.031,0.618,0.094,0.75
		c0.049,0.105,0.128,0.188,0.236,0.247c0.109,0.06,0.312,0.089,0.605,0.089v0.229h-3.027v-0.229h0.127
		c0.285,0,0.484-0.041,0.599-0.124c0.113-0.082,0.192-0.204,0.236-0.364c0.019-0.064,0.027-0.263,0.027-0.598v-2.38
		c0-0.529-0.072-0.913-0.218-1.152c-0.145-0.239-0.389-0.358-0.731-0.358c-0.53,0-1.058,0.275-1.583,0.825v3.065
		c0,0.395,0.024,0.638,0.073,0.73c0.063,0.123,0.148,0.213,0.257,0.27c0.109,0.058,0.331,0.086,0.665,0.086v0.229h-3.026v-0.229
		h0.134c0.312,0,0.521-0.075,0.631-0.226s0.164-0.437,0.164-0.86V37.2c0-0.697-0.017-1.123-0.051-1.275
		c-0.033-0.152-0.084-0.256-0.153-0.311c-0.069-0.056-0.161-0.083-0.277-0.083c-0.125,0-0.273,0.032-0.447,0.095l-0.101-0.229
		l1.844-0.711h0.288V35.919z"/>
	<path fill="#FFFFFF" d="M91.18,38.553c-0.374-0.174-0.661-0.416-0.861-0.727c-0.201-0.312-0.301-0.655-0.301-1.032
		c0-0.575,0.228-1.07,0.685-1.484c0.456-0.415,1.041-0.623,1.754-0.623c0.583,0,1.089,0.136,1.517,0.406h1.296
		c0.192,0,0.304,0.006,0.335,0.017c0.03,0.011,0.053,0.028,0.066,0.054c0.026,0.038,0.04,0.105,0.04,0.203
		c0,0.11-0.011,0.187-0.033,0.229c-0.014,0.021-0.037,0.038-0.07,0.051s-0.146,0.02-0.338,0.02h-0.795
		c0.25,0.305,0.374,0.693,0.374,1.168c0,0.541-0.218,1.005-0.654,1.39S93.171,38.8,92.436,38.8c-0.303,0-0.612-0.042-0.929-0.127
		c-0.195,0.161-0.328,0.302-0.397,0.423c-0.068,0.12-0.104,0.223-0.104,0.308c0,0.072,0.037,0.142,0.11,0.209
		c0.073,0.068,0.218,0.117,0.431,0.146c0.125,0.017,0.437,0.031,0.936,0.045c0.918,0.021,1.513,0.051,1.784,0.088
		c0.414,0.056,0.745,0.201,0.992,0.438s0.371,0.529,0.371,0.876c0,0.479-0.236,0.927-0.708,1.346
		c-0.695,0.618-1.602,0.927-2.72,0.927c-0.859,0-1.586-0.185-2.178-0.552c-0.335-0.212-0.502-0.432-0.502-0.66
		c0-0.102,0.024-0.203,0.074-0.305c0.075-0.157,0.231-0.375,0.468-0.654c0.03-0.038,0.258-0.267,0.681-0.686
		c-0.231-0.131-0.395-0.249-0.49-0.353c-0.097-0.104-0.145-0.221-0.145-0.353c0-0.147,0.063-0.321,0.19-0.52
		C90.428,39.198,90.721,38.917,91.18,38.553z M91.113,40.673c-0.21,0.216-0.368,0.417-0.475,0.604
		c-0.107,0.186-0.16,0.357-0.16,0.514c0,0.203,0.129,0.381,0.388,0.533c0.445,0.263,1.089,0.394,1.931,0.394
		c0.802,0,1.393-0.135,1.773-0.403s0.571-0.555,0.571-0.859c0-0.221-0.113-0.377-0.34-0.471c-0.232-0.093-0.691-0.147-1.377-0.164
		C92.423,40.794,91.652,40.745,91.113,40.673z M92.343,34.991c-0.33,0-0.606,0.125-0.829,0.375s-0.334,0.633-0.334,1.148
		c0,0.669,0.151,1.188,0.454,1.556c0.232,0.279,0.526,0.419,0.883,0.419c0.338,0,0.616-0.121,0.835-0.361
		c0.218-0.242,0.327-0.62,0.327-1.137c0-0.673-0.153-1.199-0.461-1.58C92.99,35.132,92.699,34.991,92.343,34.991z"/>
	<path fill="#FFFFFF" d="M98.496,34.686v4.672c0,0.364,0.027,0.606,0.083,0.728c0.056,0.12,0.139,0.21,0.248,0.27
		c0.108,0.06,0.308,0.089,0.598,0.089v0.229h-2.974v-0.229c0.299,0,0.499-0.027,0.602-0.082c0.103-0.056,0.184-0.146,0.244-0.273
		c0.06-0.127,0.09-0.37,0.09-0.73v-2.24c0-0.631-0.02-1.039-0.06-1.225c-0.031-0.136-0.081-0.23-0.147-0.283
		s-0.158-0.079-0.273-0.079c-0.125,0-0.276,0.032-0.455,0.095l-0.093-0.229l1.844-0.711H98.496z M97.941,31.646
		c0.188,0,0.347,0.063,0.478,0.188c0.132,0.125,0.197,0.276,0.197,0.454s-0.065,0.33-0.197,0.457
		c-0.131,0.127-0.29,0.189-0.478,0.189s-0.348-0.063-0.481-0.189c-0.133-0.127-0.2-0.279-0.2-0.457s0.065-0.329,0.197-0.454
		S97.75,31.646,97.941,31.646z"/>
	<path fill="#FFFFFF" d="M101.971,35.919c0.717-0.821,1.4-1.232,2.051-1.232c0.334,0,0.621,0.08,0.862,0.238
		c0.24,0.159,0.432,0.42,0.574,0.784c0.098,0.254,0.147,0.644,0.147,1.168v2.481c0,0.369,0.031,0.618,0.094,0.75
		c0.049,0.105,0.128,0.188,0.236,0.247c0.109,0.06,0.312,0.089,0.605,0.089v0.229h-3.027v-0.229h0.127
		c0.285,0,0.484-0.041,0.599-0.124c0.113-0.082,0.192-0.204,0.236-0.364c0.019-0.064,0.027-0.263,0.027-0.598v-2.38
		c0-0.529-0.072-0.913-0.218-1.152c-0.145-0.239-0.389-0.358-0.731-0.358c-0.53,0-1.058,0.275-1.583,0.825v3.065
		c0,0.395,0.024,0.638,0.073,0.73c0.063,0.123,0.148,0.213,0.257,0.27c0.109,0.058,0.331,0.086,0.665,0.086v0.229h-3.026v-0.229
		h0.134c0.312,0,0.521-0.075,0.631-0.226s0.164-0.437,0.164-0.86V37.2c0-0.697-0.017-1.123-0.051-1.275
		c-0.033-0.152-0.084-0.256-0.153-0.311c-0.069-0.056-0.161-0.083-0.277-0.083c-0.125,0-0.273,0.032-0.447,0.095l-0.101-0.229
		l1.844-0.711h0.288V35.919z"/>
	<path fill="#FFFFFF" d="M106.681,34.858h2.854v0.234h-0.141c-0.2,0-0.351,0.042-0.451,0.124c-0.101,0.083-0.15,0.186-0.15,0.308
		c0,0.166,0.073,0.395,0.221,0.686l1.49,2.934l1.369-3.213c0.076-0.173,0.114-0.345,0.114-0.514c0-0.076-0.016-0.133-0.047-0.172
		c-0.036-0.046-0.092-0.083-0.167-0.11c-0.076-0.027-0.21-0.042-0.401-0.042v-0.234h1.991v0.234
		c-0.165,0.018-0.292,0.051-0.381,0.102s-0.187,0.146-0.294,0.286c-0.04,0.06-0.116,0.222-0.228,0.489l-2.492,5.801
		c-0.24,0.563-0.556,0.988-0.945,1.276s-0.765,0.432-1.126,0.432c-0.263,0-0.479-0.072-0.647-0.216
		c-0.17-0.144-0.254-0.309-0.254-0.495c0-0.178,0.061-0.32,0.184-0.429c0.122-0.107,0.29-0.162,0.504-0.162
		c0.147,0,0.348,0.047,0.602,0.141c0.179,0.063,0.29,0.095,0.334,0.095c0.134,0,0.279-0.065,0.438-0.196
		c0.158-0.132,0.317-0.386,0.479-0.762l0.434-1.01l-2.198-4.387c-0.066-0.131-0.174-0.294-0.32-0.488
		c-0.111-0.148-0.203-0.248-0.274-0.299c-0.103-0.067-0.267-0.127-0.494-0.178V34.858z"/>
	<path fill="#FFFFFF" d="M114.899,37.048c-0.005,0.863,0.216,1.541,0.661,2.031c0.445,0.491,0.969,0.736,1.57,0.736
		c0.4,0,0.749-0.104,1.046-0.313c0.296-0.21,0.544-0.568,0.744-1.076l0.208,0.127c-0.094,0.58-0.366,1.107-0.815,1.584
		c-0.45,0.476-1.014,0.714-1.69,0.714c-0.735,0-1.364-0.271-1.888-0.815s-0.785-1.275-0.785-2.193c0-0.994,0.269-1.77,0.805-2.326
		c0.537-0.557,1.211-0.835,2.021-0.835c0.687,0,1.25,0.215,1.69,0.645c0.441,0.43,0.662,1.004,0.662,1.723H114.899z M114.899,36.681
		h2.833c-0.022-0.373-0.069-0.635-0.141-0.787c-0.111-0.237-0.277-0.424-0.498-0.559c-0.221-0.136-0.451-0.203-0.691-0.203
		c-0.37,0-0.7,0.136-0.992,0.409C115.118,35.813,114.948,36.193,114.899,36.681z"/>
	<path fill="#FFFFFF" d="M121.735,34.686v1.309c0.512-0.872,1.037-1.309,1.576-1.309c0.245,0,0.448,0.071,0.608,0.213
		s0.24,0.306,0.24,0.492c0,0.165-0.058,0.305-0.174,0.419c-0.115,0.114-0.254,0.171-0.414,0.171c-0.156,0-0.331-0.072-0.524-0.219
		c-0.193-0.146-0.338-0.219-0.431-0.219c-0.08,0-0.167,0.042-0.261,0.127c-0.2,0.174-0.408,0.459-0.621,0.857v2.786
		c0,0.321,0.042,0.565,0.127,0.729c0.058,0.115,0.16,0.21,0.307,0.286c0.147,0.076,0.358,0.114,0.635,0.114v0.229h-3.134v-0.229
		c0.313,0,0.544-0.047,0.695-0.14c0.111-0.067,0.189-0.176,0.233-0.323c0.022-0.072,0.034-0.277,0.034-0.616v-2.253
		c0-0.678-0.015-1.081-0.044-1.21s-0.082-0.223-0.16-0.282s-0.175-0.089-0.291-0.089c-0.138,0-0.294,0.032-0.468,0.095l-0.066-0.229
		l1.851-0.711H121.735z"/>
	<path fill="#FFFFFF" d="M126.612,34.686v4.672c0,0.364,0.027,0.606,0.083,0.728c0.056,0.12,0.139,0.21,0.248,0.27
		c0.108,0.06,0.308,0.089,0.598,0.089v0.229h-2.974v-0.229c0.299,0,0.499-0.027,0.602-0.082c0.103-0.056,0.184-0.146,0.244-0.273
		c0.06-0.127,0.09-0.37,0.09-0.73v-2.24c0-0.631-0.02-1.039-0.06-1.225c-0.031-0.136-0.081-0.23-0.147-0.283
		s-0.158-0.079-0.273-0.079c-0.125,0-0.276,0.032-0.455,0.095l-0.093-0.229l1.844-0.711H126.612z M126.058,31.646
		c0.188,0,0.347,0.063,0.478,0.188c0.132,0.125,0.197,0.276,0.197,0.454s-0.065,0.33-0.197,0.457
		c-0.131,0.127-0.29,0.189-0.478,0.189s-0.348-0.063-0.481-0.189c-0.133-0.127-0.2-0.279-0.2-0.457s0.065-0.329,0.197-0.454
		S125.866,31.646,126.058,31.646z"/>
	<path fill="#FFFFFF" d="M131.771,39.835c-0.628,0.461-1.022,0.728-1.183,0.8c-0.24,0.105-0.497,0.159-0.769,0.159
		c-0.423,0-0.771-0.138-1.046-0.413c-0.273-0.275-0.411-0.637-0.411-1.085c0-0.284,0.067-0.529,0.201-0.736
		c0.183-0.288,0.5-0.559,0.952-0.813s1.203-0.563,2.255-0.928v-0.229c0-0.579-0.097-0.977-0.291-1.193
		c-0.193-0.215-0.476-0.323-0.845-0.323c-0.281,0-0.504,0.072-0.668,0.216c-0.17,0.144-0.254,0.309-0.254,0.495l0.013,0.368
		c0,0.194-0.052,0.345-0.157,0.451c-0.104,0.105-0.241,0.158-0.41,0.158c-0.165,0-0.3-0.055-0.404-0.165
		c-0.105-0.11-0.157-0.261-0.157-0.45c0-0.364,0.196-0.699,0.588-1.004s0.942-0.457,1.65-0.457c0.543,0,0.989,0.087,1.336,0.261
		c0.263,0.131,0.457,0.337,0.582,0.616c0.08,0.182,0.12,0.554,0.12,1.117v1.974c0,0.555,0.011,0.894,0.033,1.019
		s0.059,0.209,0.11,0.251c0.051,0.042,0.11,0.063,0.177,0.063c0.071,0,0.134-0.015,0.188-0.045c0.094-0.055,0.273-0.209,0.541-0.463
		v0.355c-0.499,0.635-0.976,0.952-1.43,0.952c-0.219,0-0.393-0.072-0.521-0.216S131.774,40.182,131.771,39.835z M131.771,39.423
		v-2.216c-0.673,0.254-1.107,0.434-1.303,0.54c-0.353,0.186-0.604,0.381-0.755,0.584c-0.152,0.203-0.228,0.425-0.228,0.666
		c0,0.305,0.096,0.558,0.287,0.759s0.412,0.302,0.661,0.302C130.772,40.058,131.218,39.846,131.771,39.423z"/>
	<path fill="#FFFFFF" d="M142.875,37.791h-3.508l-0.615,1.358c-0.151,0.334-0.227,0.584-0.227,0.749
		c0,0.131,0.065,0.246,0.197,0.346c0.131,0.1,0.415,0.164,0.852,0.194v0.234h-2.854v-0.234c0.379-0.064,0.624-0.146,0.735-0.248
		c0.228-0.203,0.479-0.615,0.755-1.238l3.188-7.084h0.233l3.154,7.16c0.254,0.576,0.484,0.949,0.691,1.121
		c0.207,0.171,0.495,0.268,0.865,0.289v0.234h-3.575v-0.234c0.361-0.018,0.605-0.074,0.732-0.172s0.19-0.216,0.19-0.355
		c0-0.187-0.09-0.48-0.268-0.883L142.875,37.791z M142.688,37.321l-1.536-3.479l-1.577,3.479H142.688z"/>
	<path fill="#FFFFFF" d="M148.562,38.553c-0.374-0.174-0.661-0.416-0.861-0.727c-0.201-0.312-0.301-0.655-0.301-1.032
		c0-0.575,0.228-1.07,0.685-1.484c0.456-0.415,1.041-0.623,1.754-0.623c0.583,0,1.089,0.136,1.517,0.406h1.296
		c0.192,0,0.304,0.006,0.335,0.017c0.03,0.011,0.053,0.028,0.066,0.054c0.026,0.038,0.04,0.105,0.04,0.203
		c0,0.11-0.011,0.187-0.033,0.229c-0.014,0.021-0.037,0.038-0.07,0.051s-0.146,0.02-0.338,0.02h-0.795
		c0.25,0.305,0.374,0.693,0.374,1.168c0,0.541-0.218,1.005-0.654,1.39s-1.022,0.577-1.758,0.577c-0.303,0-0.612-0.042-0.929-0.127
		c-0.195,0.161-0.328,0.302-0.397,0.423c-0.068,0.12-0.104,0.223-0.104,0.308c0,0.072,0.037,0.142,0.11,0.209
		c0.073,0.068,0.218,0.117,0.431,0.146c0.125,0.017,0.437,0.031,0.936,0.045c0.918,0.021,1.513,0.051,1.784,0.088
		c0.414,0.056,0.745,0.201,0.992,0.438s0.371,0.529,0.371,0.876c0,0.479-0.236,0.927-0.708,1.346
		c-0.695,0.618-1.602,0.927-2.72,0.927c-0.859,0-1.586-0.185-2.178-0.552c-0.335-0.212-0.502-0.432-0.502-0.66
		c0-0.102,0.024-0.203,0.074-0.305c0.075-0.157,0.231-0.375,0.468-0.654c0.03-0.038,0.258-0.267,0.681-0.686
		c-0.231-0.131-0.395-0.249-0.49-0.353c-0.097-0.104-0.145-0.221-0.145-0.353c0-0.147,0.063-0.321,0.19-0.52
		C147.81,39.198,148.103,38.917,148.562,38.553z M148.495,40.673c-0.21,0.216-0.368,0.417-0.475,0.604
		c-0.107,0.186-0.16,0.357-0.16,0.514c0,0.203,0.129,0.381,0.388,0.533c0.445,0.263,1.089,0.394,1.931,0.394
		c0.802,0,1.393-0.135,1.773-0.403s0.571-0.555,0.571-0.859c0-0.221-0.113-0.377-0.34-0.471c-0.232-0.093-0.691-0.147-1.377-0.164
		C149.805,40.794,149.034,40.745,148.495,40.673z M149.725,34.991c-0.33,0-0.606,0.125-0.829,0.375s-0.334,0.633-0.334,1.148
		c0,0.669,0.151,1.188,0.454,1.556c0.232,0.279,0.526,0.419,0.883,0.419c0.338,0,0.616-0.121,0.835-0.361
		c0.218-0.242,0.327-0.62,0.327-1.137c0-0.673-0.153-1.199-0.461-1.58C150.372,35.132,150.081,34.991,149.725,34.991z"/>
	<path fill="#FFFFFF" d="M155.558,34.686v1.309c0.512-0.872,1.037-1.309,1.576-1.309c0.245,0,0.448,0.071,0.608,0.213
		s0.24,0.306,0.24,0.492c0,0.165-0.058,0.305-0.174,0.419c-0.115,0.114-0.254,0.171-0.414,0.171c-0.156,0-0.331-0.072-0.524-0.219
		c-0.193-0.146-0.338-0.219-0.431-0.219c-0.08,0-0.167,0.042-0.261,0.127c-0.2,0.174-0.408,0.459-0.621,0.857v2.786
		c0,0.321,0.042,0.565,0.127,0.729c0.058,0.115,0.16,0.21,0.307,0.286c0.147,0.076,0.358,0.114,0.635,0.114v0.229h-3.134v-0.229
		c0.313,0,0.544-0.047,0.695-0.14c0.111-0.067,0.189-0.176,0.233-0.323c0.022-0.072,0.034-0.277,0.034-0.616v-2.253
		c0-0.678-0.015-1.081-0.044-1.21s-0.082-0.223-0.16-0.282s-0.175-0.089-0.291-0.089c-0.138,0-0.294,0.032-0.468,0.095l-0.066-0.229
		l1.851-0.711H155.558z"/>
	<path fill="#FFFFFF" d="M161.791,39.835c-0.628,0.461-1.022,0.728-1.183,0.8c-0.24,0.105-0.497,0.159-0.769,0.159
		c-0.423,0-0.771-0.138-1.046-0.413c-0.273-0.275-0.411-0.637-0.411-1.085c0-0.284,0.067-0.529,0.201-0.736
		c0.183-0.288,0.5-0.559,0.952-0.813s1.203-0.563,2.255-0.928v-0.229c0-0.579-0.097-0.977-0.291-1.193
		c-0.193-0.215-0.476-0.323-0.845-0.323c-0.281,0-0.504,0.072-0.668,0.216c-0.17,0.144-0.254,0.309-0.254,0.495l0.013,0.368
		c0,0.194-0.052,0.345-0.157,0.451c-0.104,0.105-0.241,0.158-0.41,0.158c-0.165,0-0.3-0.055-0.404-0.165
		c-0.105-0.11-0.157-0.261-0.157-0.45c0-0.364,0.196-0.699,0.588-1.004s0.942-0.457,1.65-0.457c0.543,0,0.989,0.087,1.336,0.261
		c0.263,0.131,0.457,0.337,0.582,0.616c0.08,0.182,0.12,0.554,0.12,1.117v1.974c0,0.555,0.011,0.894,0.033,1.019
		s0.059,0.209,0.11,0.251c0.051,0.042,0.11,0.063,0.177,0.063c0.071,0,0.134-0.015,0.188-0.045c0.094-0.055,0.273-0.209,0.541-0.463
		v0.355c-0.499,0.635-0.976,0.952-1.43,0.952c-0.219,0-0.393-0.072-0.521-0.216S161.795,40.182,161.791,39.835z M161.791,39.423
		v-2.216c-0.673,0.254-1.107,0.434-1.303,0.54c-0.353,0.186-0.604,0.381-0.755,0.584c-0.152,0.203-0.228,0.425-0.228,0.666
		c0,0.305,0.096,0.558,0.287,0.759s0.412,0.302,0.661,0.302C160.793,40.058,161.238,39.846,161.791,39.423z M159.633,31.849h1.49
		l0.708,2.19h-0.234L159.633,31.849z"/>
	<path fill="#FFFFFF" d="M166.188,34.686v1.309c0.512-0.872,1.037-1.309,1.576-1.309c0.245,0,0.448,0.071,0.608,0.213
		s0.24,0.306,0.24,0.492c0,0.165-0.058,0.305-0.174,0.419c-0.115,0.114-0.254,0.171-0.414,0.171c-0.156,0-0.331-0.072-0.524-0.219
		c-0.193-0.146-0.338-0.219-0.431-0.219c-0.08,0-0.167,0.042-0.261,0.127c-0.2,0.174-0.408,0.459-0.621,0.857v2.786
		c0,0.321,0.042,0.565,0.127,0.729c0.058,0.115,0.16,0.21,0.307,0.286c0.147,0.076,0.358,0.114,0.635,0.114v0.229h-3.134v-0.229
		c0.313,0,0.544-0.047,0.695-0.14c0.111-0.067,0.189-0.176,0.233-0.323c0.022-0.072,0.034-0.277,0.034-0.616v-2.253
		c0-0.678-0.015-1.081-0.044-1.21s-0.082-0.223-0.16-0.282s-0.175-0.089-0.291-0.089c-0.138,0-0.294,0.032-0.468,0.095l-0.066-0.229
		l1.851-0.711H166.188z"/>
	<path fill="#FFFFFF" d="M171.065,34.686v4.672c0,0.364,0.027,0.606,0.083,0.728c0.056,0.12,0.139,0.21,0.248,0.27
		c0.108,0.06,0.308,0.089,0.598,0.089v0.229h-2.974v-0.229c0.299,0,0.499-0.027,0.602-0.082c0.103-0.056,0.184-0.146,0.244-0.273
		c0.06-0.127,0.09-0.37,0.09-0.73v-2.24c0-0.631-0.02-1.039-0.06-1.225c-0.031-0.136-0.081-0.23-0.147-0.283
		s-0.158-0.079-0.273-0.079c-0.125,0-0.276,0.032-0.455,0.095l-0.093-0.229l1.844-0.711H171.065z M170.511,31.646
		c0.188,0,0.347,0.063,0.478,0.188c0.132,0.125,0.197,0.276,0.197,0.454s-0.065,0.33-0.197,0.457
		c-0.131,0.127-0.29,0.189-0.478,0.189s-0.348-0.063-0.481-0.189c-0.133-0.127-0.2-0.279-0.2-0.457s0.065-0.329,0.197-0.454
		S170.319,31.646,170.511,31.646z"/>
	<path fill="#FFFFFF" d="M176.224,39.835c-0.628,0.461-1.022,0.728-1.183,0.8c-0.24,0.105-0.497,0.159-0.769,0.159
		c-0.423,0-0.771-0.138-1.046-0.413c-0.273-0.275-0.411-0.637-0.411-1.085c0-0.284,0.067-0.529,0.201-0.736
		c0.183-0.288,0.5-0.559,0.952-0.813s1.203-0.563,2.255-0.928v-0.229c0-0.579-0.097-0.977-0.291-1.193
		c-0.193-0.215-0.476-0.323-0.845-0.323c-0.281,0-0.504,0.072-0.668,0.216c-0.17,0.144-0.254,0.309-0.254,0.495l0.013,0.368
		c0,0.194-0.052,0.345-0.157,0.451c-0.104,0.105-0.241,0.158-0.41,0.158c-0.165,0-0.3-0.055-0.404-0.165
		c-0.105-0.11-0.157-0.261-0.157-0.45c0-0.364,0.196-0.699,0.588-1.004s0.942-0.457,1.65-0.457c0.543,0,0.989,0.087,1.336,0.261
		c0.263,0.131,0.457,0.337,0.582,0.616c0.08,0.182,0.12,0.554,0.12,1.117v1.974c0,0.555,0.011,0.894,0.033,1.019
		s0.059,0.209,0.11,0.251c0.051,0.042,0.11,0.063,0.177,0.063c0.071,0,0.134-0.015,0.188-0.045c0.094-0.055,0.273-0.209,0.541-0.463
		v0.355c-0.499,0.635-0.976,0.952-1.43,0.952c-0.219,0-0.393-0.072-0.521-0.216S176.228,40.182,176.224,39.835z M176.224,39.423
		v-2.216c-0.673,0.254-1.107,0.434-1.303,0.54c-0.353,0.186-0.604,0.381-0.755,0.584c-0.152,0.203-0.228,0.425-0.228,0.666
		c0,0.305,0.096,0.558,0.287,0.759s0.412,0.302,0.661,0.302C175.226,40.058,175.671,39.846,176.224,39.423z"/>
</g>
</svg>
